<?xml version="1.0" encoding="UTF-8" standalone="no"?>
<!DOCTYPE svg PUBLIC "-//W3C//DTD SVG 1.1//EN"
 "http://www.w3.org/Graphics/SVG/1.1/DTD/svg11.dtd">
<!-- Generated by graphviz version 2.40.1 (0)
 -->
<!-- Title: GitRepos Pages: 1 -->
<svg width="999pt" height="786pt"
 viewBox="0.00 0.00 998.71 786.17" xmlns="http://www.w3.org/2000/svg" xmlns:xlink="http://www.w3.org/1999/xlink">
<g id="graph0" class="graph" transform="scale(1 1) rotate(0) translate(4 782.1654)">
<title>GitRepos</title>
<!-- main -->
<g id="node1" class="node">
<title>main</title>
<ellipse fill="#d3d3d3" stroke="#000000" cx="407.0827" cy="-407.0827" rx="54" ry="54"/>
<text text-anchor="start" x="364.5827" y="-410.8827" font-family="Helvetica,sans-Serif" font-size="14.00" fill="#000000">MOM&#45;ocean</text>
<text text-anchor="start" x="391.5827" y="-396.8827" font-family="Inconsolata" font-size="14.00" fill="#000000">main</text>
</g>
<!-- gfdl -->
<g id="node2" class="node">
<title>gfdl</title>
<ellipse fill="#00bfff" stroke="#000000" cx="573.381" cy="-475.9657" rx="54" ry="54"/>
<text text-anchor="start" x="529.381" y="-486.7657" font-family="Helvetica,sans-Serif" font-size="14.00" fill="#000000">NOAA&#45;GFDL</text>
<text text-anchor="start" x="557.881" y="-472.7657" font-family="Inconsolata" font-size="14.00" fill="#000000">main</text>
<text text-anchor="start" x="542.881" y="-458.7657" font-family="Inconsolata" font-size="14.00" fill="#000000">dev/gfdl</text>
</g>
<!-- gfdl&#45;&gt;main -->
<g id="edge1" class="edge">
<title>gfdl&#45;&gt;main</title>
<path fill="none" stroke="#ffffff" d="M514.2102,-451.4564C498.7756,-445.0632 482.1357,-438.1707 466.6792,-431.7684"/>
<polygon fill="#ffffff" stroke="#ffffff" points="512.9078,-454.7052 523.486,-455.2985 515.5866,-448.2381 512.9078,-454.7052"/>
<polygon fill="#ffffff" stroke="#ffffff" points="467.8079,-428.4476 457.2296,-427.8542 465.129,-434.9147 467.8079,-428.4476"/>
</g>
<!-- ncar -->
<g id="node3" class="node">
<title>ncar</title>
<ellipse fill="#66cdaa" stroke="#000000" cx="475.9657" cy="-573.381" rx="54" ry="54"/>
<text text-anchor="start" x="455.9657" y="-584.181" font-family="Helvetica,sans-Serif" font-size="14.00" fill="#000000">NCAR</text>
<text text-anchor="start" x="460.4657" y="-570.181" font-family="Inconsolata" font-size="14.00" fill="#000000">main</text>
<text text-anchor="start" x="445.4657" y="-556.181" font-family="Inconsolata" font-size="14.00" fill="#000000">dev/ncar</text>
</g>
<!-- gfdl&#45;&gt;ncar -->
<g id="edge9" class="edge">
<title>gfdl&#45;&gt;ncar</title>
<path fill="none" stroke="#ffffff" d="M528.0444,-521.3023C525.9054,-523.4413 523.7577,-525.5891 521.6178,-527.7289"/>
<polygon fill="#ffffff" stroke="#ffffff" points="530.5633,-523.7332 535.1595,-514.1872 525.6135,-518.7834 530.5633,-523.7332"/>
<polygon fill="#ffffff" stroke="#ffffff" points="518.9931,-525.4039 514.3969,-534.9498 523.9429,-530.3536 518.9931,-525.4039"/>
</g>
<!-- ncar&#45;&gt;main -->
<g id="edge2" class="edge">
<title>ncar&#45;&gt;main</title>
<path fill="none" stroke="#ffffff" d="M451.4564,-514.2102C445.0632,-498.7756 438.1707,-482.1357 431.7684,-466.6792"/>
<polygon fill="#ffffff" stroke="#ffffff" points="448.2381,-515.5866 455.2985,-523.486 454.7052,-512.9078 448.2381,-515.5866"/>
<polygon fill="#ffffff" stroke="#ffffff" points="434.9147,-465.129 427.8542,-457.2296 428.4476,-467.8079 434.9147,-465.129"/>
</g>
<!-- fsu -->
<g id="node4" class="node">
<title>fsu</title>
<ellipse fill="#ffa500" stroke="#000000" cx="338.1997" cy="-573.381" rx="54" ry="54"/>
<text text-anchor="start" x="324.1997" y="-584.181" font-family="Helvetica,sans-Serif" font-size="14.00" fill="#000000">FSU</text>
<text text-anchor="start" x="322.6997" y="-570.181" font-family="Inconsolata" font-size="14.00" fill="#000000">main</text>
<text text-anchor="start" x="311.6997" y="-556.181" font-family="Inconsolata" font-size="14.00" fill="#000000">dev/fsu</text>
</g>
<!-- ncar&#45;&gt;fsu -->
<g id="edge10" class="edge">
<title>ncar&#45;&gt;fsu</title>
<path fill="none" stroke="#ffffff" d="M411.8501,-573.381C408.8251,-573.381 405.7877,-573.381 402.7615,-573.381"/>
<polygon fill="#ffffff" stroke="#ffffff" points="411.9124,-576.8811 421.9123,-573.381 411.9123,-569.8811 411.9124,-576.8811"/>
<polygon fill="#ffffff" stroke="#ffffff" points="402.5496,-569.8811 392.5496,-573.381 402.5495,-576.8811 402.5496,-569.8811"/>
</g>
<!-- fsu&#45;&gt;main -->
<g id="edge3" class="edge">
<title>fsu&#45;&gt;main</title>
<path fill="none" stroke="#ffffff" d="M362.709,-514.2102C369.1022,-498.7756 375.9947,-482.1357 382.397,-466.6792"/>
<polygon fill="#ffffff" stroke="#ffffff" points="359.4602,-512.9078 358.8669,-523.486 365.9273,-515.5866 359.4602,-512.9078"/>
<polygon fill="#ffffff" stroke="#ffffff" points="385.7178,-467.8079 386.3112,-457.2296 379.2507,-465.129 385.7178,-467.8079"/>
</g>
<!-- nasa -->
<g id="node5" class="node">
<title>nasa</title>
<ellipse fill="#ffffff" stroke="#000000" cx="240.7844" cy="-475.9657" rx="54" ry="54"/>
<text text-anchor="start" x="195.7844" y="-486.7657" font-family="Helvetica,sans-Serif" font-size="14.00" fill="#000000">NASA&#45;GMAO</text>
<text text-anchor="start" x="225.2844" y="-472.7657" font-family="Inconsolata" font-size="14.00" fill="#000000">main</text>
<text text-anchor="start" x="210.2844" y="-458.7657" font-family="Inconsolata" font-size="14.00" fill="#000000">dev/gmao</text>
</g>
<!-- fsu&#45;&gt;nasa -->
<g id="edge11" class="edge">
<title>fsu&#45;&gt;nasa</title>
<path fill="none" stroke="#ffffff" d="M292.8631,-528.0444C290.7241,-525.9054 288.5763,-523.7577 286.4365,-521.6178"/>
<polygon fill="#ffffff" stroke="#ffffff" points="290.4322,-530.5633 299.9782,-535.1595 295.382,-525.6135 290.4322,-530.5633"/>
<polygon fill="#ffffff" stroke="#ffffff" points="288.7615,-518.9931 279.2156,-514.3969 283.8118,-523.9429 288.7615,-518.9931"/>
</g>
<!-- nasa&#45;&gt;main -->
<g id="edge4" class="edge">
<title>nasa&#45;&gt;main</title>
<path fill="none" stroke="#ffffff" d="M299.9552,-451.4564C315.3898,-445.0632 332.0297,-438.1707 347.4862,-431.7684"/>
<polygon fill="#ffffff" stroke="#ffffff" points="298.5788,-448.2381 290.6794,-455.2985 301.2576,-454.7052 298.5788,-448.2381"/>
<polygon fill="#ffffff" stroke="#ffffff" points="349.0364,-434.9147 356.9358,-427.8542 346.3575,-428.4476 349.0364,-434.9147"/>
</g>
<!-- ncep -->
<g id="node6" class="node">
<title>ncep</title>
<ellipse fill="#6495ed" stroke="#000000" cx="240.7844" cy="-338.1997" rx="54" ry="54"/>
<text text-anchor="start" x="198.2844" y="-348.9997" font-family="Helvetica,sans-Serif" font-size="14.00" fill="#000000">NOAA&#45;NCEP</text>
<text text-anchor="start" x="225.2844" y="-334.9997" font-family="Inconsolata" font-size="14.00" fill="#000000">main</text>
<text text-anchor="start" x="210.2844" y="-320.9997" font-family="Inconsolata" font-size="14.00" fill="#000000">dev/ncep</text>
</g>
<!-- nasa&#45;&gt;ncep -->
<g id="edge12" class="edge">
<title>nasa&#45;&gt;ncep</title>
<path fill="none" stroke="#ffffff" d="M240.7844,-411.8501C240.7844,-408.8251 240.7844,-405.7877 240.7844,-402.7615"/>
<polygon fill="#ffffff" stroke="#ffffff" points="237.2845,-411.9123 240.7844,-421.9123 244.2845,-411.9124 237.2845,-411.9123"/>
<polygon fill="#ffffff" stroke="#ffffff" points="244.2845,-402.5495 240.7844,-392.5496 237.2845,-402.5496 244.2845,-402.5495"/>
</g>
<!-- ncep&#45;&gt;main -->
<g id="edge5" class="edge">
<title>ncep&#45;&gt;main</title>
<path fill="none" stroke="#ffffff" d="M299.9552,-362.709C315.3898,-369.1022 332.0297,-375.9947 347.4862,-382.397"/>
<polygon fill="#ffffff" stroke="#ffffff" points="301.2576,-359.4602 290.6794,-358.8669 298.5788,-365.9273 301.2576,-359.4602"/>
<polygon fill="#ffffff" stroke="#ffffff" points="346.3575,-385.7178 356.9358,-386.3112 349.0364,-379.2507 346.3575,-385.7178"/>
</g>
<!-- esmg -->
<g id="node7" class="node">
<title>esmg</title>
<ellipse fill="#fa8072" stroke="#000000" cx="338.1997" cy="-240.7844" rx="54" ry="54"/>
<text text-anchor="start" x="310.6997" y="-258.5844" font-family="Helvetica,sans-Serif" font-size="14.00" fill="#000000">Rutgers</text>
<text text-anchor="start" x="317.1997" y="-244.5844" font-family="Helvetica,sans-Serif" font-size="14.00" fill="#000000">ESMG</text>
<text text-anchor="start" x="322.6997" y="-230.5844" font-family="Inconsolata" font-size="14.00" fill="#000000">main</text>
<text text-anchor="start" x="307.6997" y="-216.5844" font-family="Inconsolata" font-size="14.00" fill="#000000">dev/esmg</text>
</g>
<!-- ncep&#45;&gt;esmg -->
<g id="edge13" class="edge">
<title>ncep&#45;&gt;esmg</title>
<path fill="none" stroke="#ffffff" d="M286.121,-292.8631C288.26,-290.7241 290.4077,-288.5763 292.5476,-286.4365"/>
<polygon fill="#ffffff" stroke="#ffffff" points="283.6021,-290.4322 279.0059,-299.9782 288.5519,-295.382 283.6021,-290.4322"/>
<polygon fill="#ffffff" stroke="#ffffff" points="295.1723,-288.7615 299.7685,-279.2156 290.2225,-283.8118 295.1723,-288.7615"/>
</g>
<!-- esmg&#45;&gt;main -->
<g id="edge6" class="edge">
<title>esmg&#45;&gt;main</title>
<path fill="none" stroke="#ffffff" d="M362.709,-299.9552C369.1022,-315.3898 375.9947,-332.0297 382.397,-347.4862"/>
<polygon fill="#ffffff" stroke="#ffffff" points="365.9273,-298.5788 358.8669,-290.6794 359.4602,-301.2576 365.9273,-298.5788"/>
<polygon fill="#ffffff" stroke="#ffffff" points="379.2507,-349.0364 386.3112,-356.9358 385.7178,-346.3575 379.2507,-349.0364"/>
</g>
<!-- access -->
<g id="node8" class="node">
<title>access</title>
<ellipse fill="#ffd700" stroke="#000000" cx="475.9657" cy="-240.7844" rx="54" ry="54"/>
<text text-anchor="start" x="447.4657" y="-251.5844" font-family="Helvetica,sans-Serif" font-size="14.00" fill="#000000">ACCESS</text>
<text text-anchor="start" x="460.4657" y="-237.5844" font-family="Inconsolata" font-size="14.00" fill="#000000">main</text>
<text text-anchor="start" x="437.9657" y="-223.5844" font-family="Inconsolata" font-size="14.00" fill="#000000">dev/access</text>
</g>
<!-- esmg&#45;&gt;access -->
<g id="edge14" class="edge">
<title>esmg&#45;&gt;access</title>
<path fill="none" stroke="#ffffff" d="M402.3153,-240.7844C405.3403,-240.7844 408.3777,-240.7844 411.4039,-240.7844"/>
<polygon fill="#ffffff" stroke="#ffffff" points="402.2531,-237.2845 392.2531,-240.7844 402.253,-244.2845 402.2531,-237.2845"/>
<polygon fill="#ffffff" stroke="#ffffff" points="411.6159,-244.2845 421.6158,-240.7844 411.6158,-237.2845 411.6159,-244.2845"/>
</g>
<!-- access&#45;&gt;main -->
<g id="edge7" class="edge">
<title>access&#45;&gt;main</title>
<path fill="none" stroke="#ffffff" d="M451.4564,-299.9552C445.0632,-315.3898 438.1707,-332.0297 431.7684,-347.4862"/>
<polygon fill="#ffffff" stroke="#ffffff" points="454.7052,-301.2576 455.2985,-290.6794 448.2381,-298.5788 454.7052,-301.2576"/>
<polygon fill="#ffffff" stroke="#ffffff" points="428.4476,-346.3575 427.8542,-356.9358 434.9147,-349.0364 428.4476,-346.3575"/>
</g>
<!-- kiost -->
<g id="node9" class="node">
<title>kiost</title>
<ellipse fill="#fa8072" stroke="#000000" cx="573.381" cy="-338.1997" rx="54" ry="54"/>
<text text-anchor="start" x="551.881" y="-348.9997" font-family="Helvetica,sans-Serif" font-size="14.00" fill="#000000">KIOST</text>
<text text-anchor="start" x="557.881" y="-334.9997" font-family="Inconsolata" font-size="14.00" fill="#000000">main</text>
<text text-anchor="start" x="539.381" y="-320.9997" font-family="Inconsolata" font-size="14.00" fill="#000000">dev/kiost</text>
</g>
<!-- access&#45;&gt;kiost -->
<g id="edge15" class="edge">
<title>access&#45;&gt;kiost</title>
<path fill="none" stroke="#ffffff" d="M521.3023,-286.121C523.4413,-288.26 525.5891,-290.4077 527.7289,-292.5476"/>
<polygon fill="#ffffff" stroke="#ffffff" points="523.7332,-283.6021 514.1872,-279.0059 518.7834,-288.5519 523.7332,-283.6021"/>
<polygon fill="#ffffff" stroke="#ffffff" points="525.4039,-295.1723 534.9498,-299.7685 530.3536,-290.2225 525.4039,-295.1723"/>
</g>
<!-- kiost&#45;&gt;main -->
<g id="edge8" class="edge">
<title>kiost&#45;&gt;main</title>
<path fill="none" stroke="#ffffff" d="M514.2102,-362.709C498.7756,-369.1022 482.1357,-375.9947 466.6792,-382.397"/>
<polygon fill="#ffffff" stroke="#ffffff" points="515.5866,-365.9273 523.486,-358.8669 512.9078,-359.4602 515.5866,-365.9273"/>
<polygon fill="#ffffff" stroke="#ffffff" points="465.129,-379.2507 457.2296,-386.3112 467.8079,-385.7178 465.129,-379.2507"/>
</g>
<!-- kiost&#45;&gt;gfdl -->
<g id="edge16" class="edge">
<title>kiost&#45;&gt;gfdl</title>
<path fill="none" stroke="#ffffff" d="M573.381,-402.3153C573.381,-405.3403 573.381,-408.3777 573.381,-411.4039"/>
<polygon fill="#ffffff" stroke="#ffffff" points="576.8811,-402.253 573.381,-392.2531 569.8811,-402.2531 576.8811,-402.253"/>
<polygon fill="#ffffff" stroke="#ffffff" points="569.8811,-411.6158 573.381,-421.6158 576.8811,-411.6159 569.8811,-411.6158"/>
</g>
<!-- u1_gfdl -->
<g id="node10" class="node">
<title>u1_gfdl</title>
<ellipse fill="#00bfff" stroke="#000000" cx="760.1654" cy="-477.3152" rx="18" ry="18"/>
<text text-anchor="middle" x="760.1654" y="-473.6152" font-family="Helvetica,sans-Serif" font-size="14.00" fill="#000000">user</text>
</g>
<!-- u1_gfdl&#45;&gt;gfdl -->
<g id="edge17" class="edge">
<title>u1_gfdl&#45;&gt;gfdl</title>
<path fill="none" stroke="#ffffff" d="M741.9156,-477.1834C717.918,-477.01 674.489,-476.6962 637.7278,-476.4306"/>
<polygon fill="#ffffff" stroke="#ffffff" points="637.5828,-472.9296 627.5577,-476.3571 637.5321,-479.9294 637.5828,-472.9296"/>
</g>
<!-- u2_gfdl -->
<g id="node11" class="node">
<title>u2_gfdl</title>
<ellipse fill="#00bfff" stroke="#000000" cx="706.4118" cy="-607.088" rx="18" ry="18"/>
<text text-anchor="middle" x="706.4118" y="-603.388" font-family="Helvetica,sans-Serif" font-size="14.00" fill="#000000">user</text>
</g>
<!-- u2_gfdl&#45;&gt;gfdl -->
<g id="edge18" class="edge">
<title>u2_gfdl&#45;&gt;gfdl</title>
<path fill="none" stroke="#ffffff" d="M693.1699,-594.0361C676.0494,-577.1612 645.3397,-546.892 619.3015,-521.2274"/>
<polygon fill="#ffffff" stroke="#ffffff" points="621.6753,-518.6528 612.0964,-514.1257 616.7615,-523.6382 621.6753,-518.6528"/>
</g>
<!-- u1_ncar -->
<g id="node12" class="node">
<title>u1_ncar</title>
<ellipse fill="#66cdaa" stroke="#000000" cx="607.088" cy="-706.4118" rx="18" ry="18"/>
<text text-anchor="middle" x="607.088" y="-702.7118" font-family="Helvetica,sans-Serif" font-size="14.00" fill="#000000">user</text>
</g>
<!-- u1_ncar&#45;&gt;ncar -->
<g id="edge19" class="edge">
<title>u1_ncar&#45;&gt;ncar</title>
<path fill="none" stroke="#ffffff" d="M594.0361,-693.1699C577.1612,-676.0494 546.892,-645.3397 521.2274,-619.3015"/>
<polygon fill="#ffffff" stroke="#ffffff" points="523.6382,-616.7615 514.1257,-612.0964 518.6528,-621.6753 523.6382,-616.7615"/>
</g>
<!-- u2_ncar -->
<g id="node13" class="node">
<title>u2_ncar</title>
<ellipse fill="#66cdaa" stroke="#000000" cx="477.3152" cy="-760.1654" rx="18" ry="18"/>
<text text-anchor="middle" x="477.3152" y="-756.4654" font-family="Helvetica,sans-Serif" font-size="14.00" fill="#000000">user</text>
</g>
<!-- u2_ncar&#45;&gt;ncar -->
<g id="edge20" class="edge">
<title>u2_ncar&#45;&gt;ncar</title>
<path fill="none" stroke="#ffffff" d="M477.1834,-741.9156C477.01,-717.918 476.6962,-674.489 476.4306,-637.7278"/>
<polygon fill="#ffffff" stroke="#ffffff" points="479.9294,-637.5321 476.3571,-627.5577 472.9296,-637.5828 479.9294,-637.5321"/>
</g>
<!-- u2_fsu -->
<!-- u2_fsu&#45;&gt;fsu -->
<g id="edge22" class="edge">
<title>u2_fsu&#45;&gt;fsu</title>
</g>
<!-- u1_fsu -->
<g id="node15" class="node">
<title>u1_fsu</title>
<ellipse fill="#ffa500" stroke="#000000" cx="207.0774" cy="-706.4118" rx="18" ry="18"/>
<text text-anchor="middle" x="207.0774" y="-702.7118" font-family="Helvetica,sans-Serif" font-size="14.00" fill="#000000">user</text>
</g>
<!-- u1_fsu&#45;&gt;fsu -->
<g id="edge21" class="edge">
<title>u1_fsu&#45;&gt;fsu</title>
<path fill="none" stroke="#ffffff" d="M220.1293,-693.1699C237.0042,-676.0494 267.2734,-645.3397 292.938,-619.3015"/>
<polygon fill="#ffffff" stroke="#ffffff" points="295.5126,-621.6753 300.0397,-612.0964 290.5272,-616.7615 295.5126,-621.6753"/>
</g>
<!-- u1_nasa -->
<g id="node16" class="node">
<title>u1_nasa</title>
<ellipse fill="#ffffff" stroke="#000000" cx="107.7536" cy="-607.088" rx="18" ry="18"/>
<text text-anchor="middle" x="107.7536" y="-603.388" font-family="Helvetica,sans-Serif" font-size="14.00" fill="#000000">user</text>
</g>
<!-- u1_nasa&#45;&gt;nasa -->
<g id="edge23" class="edge">
<title>u1_nasa&#45;&gt;nasa</title>
<path fill="none" stroke="#ffffff" d="M120.9955,-594.0361C138.116,-577.1612 168.8257,-546.892 194.8639,-521.2274"/>
<polygon fill="#ffffff" stroke="#ffffff" points="197.4039,-523.6382 202.069,-514.1257 192.4901,-518.6528 197.4039,-523.6382"/>
</g>
<!-- u2_nasa -->
<!-- u2_nasa&#45;&gt;nasa -->
<g id="edge24" class="edge">
<title>u2_nasa&#45;&gt;nasa</title>
</g>
<!-- note_ncep -->
<g id="node18" class="node">
<title>note_ncep</title>
<polygon fill="transparent" stroke="transparent" points="108,-354.8502 0,-354.8502 0,-318.8502 108,-318.8502 108,-354.8502"/>
<text text-anchor="middle" x="54" y="-340.6502" font-family="Helvetica,sans-Serif" font-size="14.00" fill="#ffffff">GitHub</text>
<text text-anchor="middle" x="54" y="-325.6502" font-family="Helvetica,sans-Serif" font-size="14.00" fill="#ffffff">organizations</text>
</g>
<!-- note_ncep&#45;&gt;ncep -->
<g id="edge26" class="edge">
<title>note_ncep&#45;&gt;ncep</title>
<path fill="none" stroke="#ffffff" d="M108.0258,-337.2405C129.4221,-337.3951 154.1926,-337.5741 176.5011,-337.7352"/>
<polygon fill="#ffffff" stroke="#ffffff" points="176.5317,-341.2355 186.5567,-337.8079 176.5823,-334.2356 176.5317,-341.2355"/>
</g>
<!-- u1_ncep -->
<g id="node19" class="node">
<title>u1_ncep</title>
<ellipse fill="#6495ed" stroke="#000000" cx="107.7536" cy="-207.0774" rx="18" ry="18"/>
<text text-anchor="middle" x="107.7536" y="-203.3774" font-family="Helvetica,sans-Serif" font-size="14.00" fill="#000000">user</text>
</g>
<!-- u1_ncep&#45;&gt;ncep -->
<g id="edge25" class="edge">
<title>u1_ncep&#45;&gt;ncep</title>
<path fill="none" stroke="#ffffff" d="M120.9955,-220.1293C138.116,-237.0042 168.8257,-267.2734 194.8639,-292.938"/>
<polygon fill="#ffffff" stroke="#ffffff" points="192.4901,-295.5126 202.069,-300.0397 197.4039,-290.5272 192.4901,-295.5126"/>
</g>
<!-- u1_esmg -->
<g id="node20" class="node">
<title>u1_esmg</title>
<ellipse fill="#fa8072" stroke="#000000" cx="207.0774" cy="-107.7536" rx="18" ry="18"/>
<text text-anchor="middle" x="207.0774" y="-104.0536" font-family="Helvetica,sans-Serif" font-size="14.00" fill="#000000">user</text>
</g>
<!-- u1_esmg&#45;&gt;esmg -->
<g id="edge27" class="edge">
<title>u1_esmg&#45;&gt;esmg</title>
<path fill="none" stroke="#ffffff" d="M220.1293,-120.9955C237.0042,-138.116 267.2734,-168.8257 292.938,-194.8639"/>
<polygon fill="#ffffff" stroke="#ffffff" points="290.5272,-197.4039 300.0397,-202.069 295.5126,-192.4901 290.5272,-197.4039"/>
</g>
<!-- u2_esmg -->
<!-- u2_esmg&#45;&gt;esmg -->
<g id="edge28" class="edge">
<title>u2_esmg&#45;&gt;esmg</title>
</g>
<!-- u1_access -->
<g id="node22" class="node">
<title>u1_access</title>
<ellipse fill="#ffd700" stroke="#000000" cx="477.3152" cy="-54" rx="18" ry="18"/>
<text text-anchor="middle" x="477.3152" y="-50.3" font-family="Helvetica,sans-Serif" font-size="14.00" fill="#000000">user</text>
</g>
<!-- u1_access&#45;&gt;access -->
<g id="edge29" class="edge">
<title>u1_access&#45;&gt;access</title>
<path fill="none" stroke="#ffffff" d="M477.1834,-72.2498C477.01,-96.2474 476.6962,-139.6764 476.4306,-176.4376"/>
<polygon fill="#ffffff" stroke="#ffffff" points="472.9296,-176.5826 476.3571,-186.6077 479.9294,-176.6333 472.9296,-176.5826"/>
</g>
<!-- u2_access -->
<!-- u2_access&#45;&gt;access -->
<g id="edge30" class="edge">
<title>u2_access&#45;&gt;access</title>
</g>
<!-- u1_kiost -->
<g id="node24" class="node">
<title>u1_kiost</title>
<ellipse fill="#fa8072" stroke="#000000" cx="706.4118" cy="-207.0774" rx="18" ry="18"/>
<text text-anchor="middle" x="706.4118" y="-203.3774" font-family="Helvetica,sans-Serif" font-size="14.00" fill="#000000">user</text>
</g>
<!-- u1_kiost&#45;&gt;kiost -->
<g id="edge31" class="edge">
<title>u1_kiost&#45;&gt;kiost</title>
<path fill="none" stroke="#ffffff" d="M693.1699,-220.1293C676.0494,-237.0042 645.3397,-267.2734 619.3015,-292.938"/>
<polygon fill="#ffffff" stroke="#ffffff" points="616.7615,-290.5272 612.0964,-300.0397 621.6753,-295.5126 616.7615,-290.5272"/>
</g>
<!-- u2_kiost -->
<!-- u2_kiost&#45;&gt;kiost -->
<g id="edge32" class="edge">
<title>u2_kiost&#45;&gt;kiost</title>
</g>
<!-- forks -->
<g id="node26" class="node">
<title>forks</title>
<polygon fill="transparent" stroke="transparent" points="990.7068,-530.4315 882.7068,-530.4315 882.7068,-494.4315 990.7068,-494.4315 990.7068,-530.4315"/>
<text text-anchor="middle" x="936.7068" y="-516.2315" font-family="Helvetica,sans-Serif" font-size="14.00" fill="#ffffff">GitHub</text>
<text text-anchor="middle" x="936.7068" y="-501.2315" font-family="Helvetica,sans-Serif" font-size="14.00" fill="#ffffff">forks</text>
</g>
<!-- forks&#45;&gt;u1_gfdl -->
<g id="edge33" class="edge">
<title>forks&#45;&gt;u1_gfdl</title>
<path fill="none" stroke="#ffffff" d="M882.298,-501.6089C851.0937,-495.402 813.2351,-487.8714 788.0202,-482.8559"/>
<polygon fill="#ffffff" stroke="#ffffff" points="788.5349,-479.3898 778.0442,-480.8715 787.1692,-486.2553 788.5349,-479.3898"/>
</g>
<!-- forks&#45;&gt;u1_ncar -->
<g id="edge34" class="edge">
<title>forks&#45;&gt;u1_ncar</title>
<path fill="none" stroke="#ffffff" d="M905.993,-530.5065C840.9119,-568.8066 690.2764,-657.4555 631.3447,-692.1367"/>
<polygon fill="#ffffff" stroke="#ffffff" points="629.5442,-689.1351 622.701,-697.2235 633.0946,-695.168 629.5442,-689.1351"/>
</g>
</g>
</svg>
