<?xml version="1.0" encoding="utf-8" standalone="no"?>
<!DOCTYPE svg PUBLIC "-//W3C//DTD SVG 1.1//EN"
  "http://www.w3.org/Graphics/SVG/1.1/DTD/svg11.dtd">
<svg xmlns:xlink="http://www.w3.org/1999/xlink" width="730.08pt" height="275.04pt" viewBox="0 0 730.08 275.04" xmlns="http://www.w3.org/2000/svg" version="1.1">
 <metadata>
  <rdf:RDF xmlns:dc="http://purl.org/dc/elements/1.1/" xmlns:cc="http://creativecommons.org/ns#" xmlns:rdf="http://www.w3.org/1999/02/22-rdf-syntax-ns#">
   <cc:Work>
    <dc:type rdf:resource="http://purl.org/dc/dcmitype/StillImage"/>
    <dc:date>2026-07-27T23:12:37.957319</dc:date>
    <dc:format>image/svg+xml</dc:format>
    <dc:creator>
     <cc:Agent>
      <dc:title>Matplotlib v3.10.9, https://matplotlib.org/</dc:title>
     </cc:Agent>
    </dc:creator>
   </cc:Work>
  </rdf:RDF>
 </metadata>
 <defs>
  <style type="text/css">*{stroke-linejoin: round; stroke-linecap: butt}</style>
 </defs>
 <g id="figure_1">
  <g id="patch_1">
   <path d="M 0 275.04 
L 730.08 275.04 
L 730.08 0 
L 0 0 
L 0 275.04 
z
" style="fill: none"/>
  </g>
  <g id="axes_1">
   <g id="patch_2">
    <path d="M 35.45024 236.015236 
L 361.3896 236.015236 
L 361.3896 35.732595 
L 35.45024 35.732595 
z
" style="fill: #ffffff"/>
   </g>
   <g id="FillBetweenPolyCollection_1">
    <path d="M 50.265665 186.251238 
L 50.265665 186.251238 
L 79.896516 182.568999 
L 109.527367 174.495769 
L 139.158218 159.041872 
L 168.789069 151.868101 
L 198.41992 142.256441 
L 228.050771 141.6256 
L 245.383708 141.071337 
L 257.681622 128.924299 
L 287.312473 100.640078 
L 316.943324 74.852206 
L 346.574175 47.114669 
L 346.574175 46.82078 
L 346.574175 46.82078 
L 316.943324 74.640813 
L 287.312473 100.347345 
L 257.681622 128.665616 
L 245.383708 140.832101 
L 228.050771 140.751547 
L 198.41992 141.587696 
L 168.789069 151.740818 
L 139.158218 158.868842 
L 109.527367 174.477778 
L 79.896516 182.564928 
L 50.265665 186.251238 
z
" clip-path="url(#p878d4748f3)" style="fill: #1f77b4; fill-opacity: 0.15"/>
   </g>
   <g id="matplotlib.axis_1">
    <g id="xtick_1">
     <g id="line2d_1">
      <path d="M 50.265665 236.015236 
L 50.265665 35.732595 
" clip-path="url(#p878d4748f3)" style="fill: none; stroke-dasharray: 0.5,0.825; stroke-dashoffset: 0; stroke: #b0b0b0; stroke-width: 0.5"/>
     </g>
     <g id="line2d_2">
      <defs>
       <path id="m721a108d4b" d="M 0 0 
L 0 3.5 
" style="stroke: #ffffff; stroke-width: 0.8"/>
      </defs>
      <g>
       <use xlink:href="#m721a108d4b" x="50.265665" y="236.015236" style="fill: #ffffff; stroke: #ffffff; stroke-width: 0.8"/>
      </g>
     </g>
     <g id="text_1">
      <!-- 1x -->
      <g style="fill: #ffffff" transform="translate(47.874761 257.072298) rotate(-45) scale(0.1 -0.1)">
       <defs>
        <path id="DejaVuSans-31" d="M 794 531 
L 1825 531 
L 1825 4091 
L 703 3866 
L 703 4441 
L 1819 4666 
L 2450 4666 
L 2450 531 
L 3481 531 
L 3481 0 
L 794 0 
L 794 531 
z
" transform="scale(0.015625)"/>
        <path id="DejaVuSans-78" d="M 3513 3500 
L 2247 1797 
L 3578 0 
L 2900 0 
L 1881 1375 
L 863 0 
L 184 0 
L 1544 1831 
L 300 3500 
L 978 3500 
L 1906 2253 
L 2834 3500 
L 3513 3500 
z
" transform="scale(0.015625)"/>
       </defs>
       <use xlink:href="#DejaVuSans-31"/>
       <use xlink:href="#DejaVuSans-78" transform="translate(63.623047 0)"/>
      </g>
     </g>
    </g>
    <g id="xtick_2">
     <g id="line2d_3">
      <path d="M 79.896516 236.015236 
L 79.896516 35.732595 
" clip-path="url(#p878d4748f3)" style="fill: none; stroke-dasharray: 0.5,0.825; stroke-dashoffset: 0; stroke: #b0b0b0; stroke-width: 0.5"/>
     </g>
     <g id="line2d_4">
      <g>
       <use xlink:href="#m721a108d4b" x="79.896516" y="236.015236" style="fill: #ffffff; stroke: #ffffff; stroke-width: 0.8"/>
      </g>
     </g>
     <g id="text_2">
      <!-- 2x -->
      <g style="fill: #ffffff" transform="translate(77.505612 257.072298) rotate(-45) scale(0.1 -0.1)">
       <defs>
        <path id="DejaVuSans-32" d="M 1228 531 
L 3431 531 
L 3431 0 
L 469 0 
L 469 531 
Q 828 903 1448 1529 
Q 2069 2156 2228 2338 
Q 2531 2678 2651 2914 
Q 2772 3150 2772 3378 
Q 2772 3750 2511 3984 
Q 2250 4219 1831 4219 
Q 1534 4219 1204 4116 
Q 875 4013 500 3803 
L 500 4441 
Q 881 4594 1212 4672 
Q 1544 4750 1819 4750 
Q 2544 4750 2975 4387 
Q 3406 4025 3406 3419 
Q 3406 3131 3298 2873 
Q 3191 2616 2906 2266 
Q 2828 2175 2409 1742 
Q 1991 1309 1228 531 
z
" transform="scale(0.015625)"/>
       </defs>
       <use xlink:href="#DejaVuSans-32"/>
       <use xlink:href="#DejaVuSans-78" transform="translate(63.623047 0)"/>
      </g>
     </g>
    </g>
    <g id="xtick_3">
     <g id="line2d_5">
      <path d="M 109.527367 236.015236 
L 109.527367 35.732595 
" clip-path="url(#p878d4748f3)" style="fill: none; stroke-dasharray: 0.5,0.825; stroke-dashoffset: 0; stroke: #b0b0b0; stroke-width: 0.5"/>
     </g>
     <g id="line2d_6">
      <g>
       <use xlink:href="#m721a108d4b" x="109.527367" y="236.015236" style="fill: #ffffff; stroke: #ffffff; stroke-width: 0.8"/>
      </g>
     </g>
     <g id="text_3">
      <!-- 4x -->
      <g style="fill: #ffffff" transform="translate(107.136462 257.072298) rotate(-45) scale(0.1 -0.1)">
       <defs>
        <path id="DejaVuSans-34" d="M 2419 4116 
L 825 1625 
L 2419 1625 
L 2419 4116 
z
M 2253 4666 
L 3047 4666 
L 3047 1625 
L 3713 1625 
L 3713 1100 
L 3047 1100 
L 3047 0 
L 2419 0 
L 2419 1100 
L 313 1100 
L 313 1709 
L 2253 4666 
z
" transform="scale(0.015625)"/>
       </defs>
       <use xlink:href="#DejaVuSans-34"/>
       <use xlink:href="#DejaVuSans-78" transform="translate(63.623047 0)"/>
      </g>
     </g>
    </g>
    <g id="xtick_4">
     <g id="line2d_7">
      <path d="M 139.158218 236.015236 
L 139.158218 35.732595 
" clip-path="url(#p878d4748f3)" style="fill: none; stroke-dasharray: 0.5,0.825; stroke-dashoffset: 0; stroke: #b0b0b0; stroke-width: 0.5"/>
     </g>
     <g id="line2d_8">
      <g>
       <use xlink:href="#m721a108d4b" x="139.158218" y="236.015236" style="fill: #ffffff; stroke: #ffffff; stroke-width: 0.8"/>
      </g>
     </g>
     <g id="text_4">
      <!-- 8x -->
      <g style="fill: #ffffff" transform="translate(136.767313 257.072298) rotate(-45) scale(0.1 -0.1)">
       <defs>
        <path id="DejaVuSans-38" d="M 2034 2216 
Q 1584 2216 1326 1975 
Q 1069 1734 1069 1313 
Q 1069 891 1326 650 
Q 1584 409 2034 409 
Q 2484 409 2743 651 
Q 3003 894 3003 1313 
Q 3003 1734 2745 1975 
Q 2488 2216 2034 2216 
z
M 1403 2484 
Q 997 2584 770 2862 
Q 544 3141 544 3541 
Q 544 4100 942 4425 
Q 1341 4750 2034 4750 
Q 2731 4750 3128 4425 
Q 3525 4100 3525 3541 
Q 3525 3141 3298 2862 
Q 3072 2584 2669 2484 
Q 3125 2378 3379 2068 
Q 3634 1759 3634 1313 
Q 3634 634 3220 271 
Q 2806 -91 2034 -91 
Q 1263 -91 848 271 
Q 434 634 434 1313 
Q 434 1759 690 2068 
Q 947 2378 1403 2484 
z
M 1172 3481 
Q 1172 3119 1398 2916 
Q 1625 2713 2034 2713 
Q 2441 2713 2670 2916 
Q 2900 3119 2900 3481 
Q 2900 3844 2670 4047 
Q 2441 4250 2034 4250 
Q 1625 4250 1398 4047 
Q 1172 3844 1172 3481 
z
" transform="scale(0.015625)"/>
       </defs>
       <use xlink:href="#DejaVuSans-38"/>
       <use xlink:href="#DejaVuSans-78" transform="translate(63.623047 0)"/>
      </g>
     </g>
    </g>
    <g id="xtick_5">
     <g id="line2d_9">
      <path d="M 168.789069 236.015236 
L 168.789069 35.732595 
" clip-path="url(#p878d4748f3)" style="fill: none; stroke-dasharray: 0.5,0.825; stroke-dashoffset: 0; stroke: #b0b0b0; stroke-width: 0.5"/>
     </g>
     <g id="line2d_10">
      <g>
       <use xlink:href="#m721a108d4b" x="168.789069" y="236.015236" style="fill: #ffffff; stroke: #ffffff; stroke-width: 0.8"/>
      </g>
     </g>
     <g id="text_5">
      <!-- 16x -->
      <g style="fill: #ffffff" transform="translate(164.148681 261.571265) rotate(-45) scale(0.1 -0.1)">
       <defs>
        <path id="DejaVuSans-36" d="M 2113 2584 
Q 1688 2584 1439 2293 
Q 1191 2003 1191 1497 
Q 1191 994 1439 701 
Q 1688 409 2113 409 
Q 2538 409 2786 701 
Q 3034 994 3034 1497 
Q 3034 2003 2786 2293 
Q 2538 2584 2113 2584 
z
M 3366 4563 
L 3366 3988 
Q 3128 4100 2886 4159 
Q 2644 4219 2406 4219 
Q 1781 4219 1451 3797 
Q 1122 3375 1075 2522 
Q 1259 2794 1537 2939 
Q 1816 3084 2150 3084 
Q 2853 3084 3261 2657 
Q 3669 2231 3669 1497 
Q 3669 778 3244 343 
Q 2819 -91 2113 -91 
Q 1303 -91 875 529 
Q 447 1150 447 2328 
Q 447 3434 972 4092 
Q 1497 4750 2381 4750 
Q 2619 4750 2861 4703 
Q 3103 4656 3366 4563 
z
" transform="scale(0.015625)"/>
       </defs>
       <use xlink:href="#DejaVuSans-31"/>
       <use xlink:href="#DejaVuSans-36" transform="translate(63.623047 0)"/>
       <use xlink:href="#DejaVuSans-78" transform="translate(127.246094 0)"/>
      </g>
     </g>
    </g>
    <g id="xtick_6">
     <g id="line2d_11">
      <path d="M 198.41992 236.015236 
L 198.41992 35.732595 
" clip-path="url(#p878d4748f3)" style="fill: none; stroke-dasharray: 0.5,0.825; stroke-dashoffset: 0; stroke: #b0b0b0; stroke-width: 0.5"/>
     </g>
     <g id="line2d_12">
      <g>
       <use xlink:href="#m721a108d4b" x="198.41992" y="236.015236" style="fill: #ffffff; stroke: #ffffff; stroke-width: 0.8"/>
      </g>
     </g>
     <g id="text_6">
      <!-- 32x -->
      <g style="fill: #ffffff" transform="translate(193.779532 261.571265) rotate(-45) scale(0.1 -0.1)">
       <defs>
        <path id="DejaVuSans-33" d="M 2597 2516 
Q 3050 2419 3304 2112 
Q 3559 1806 3559 1356 
Q 3559 666 3084 287 
Q 2609 -91 1734 -91 
Q 1441 -91 1130 -33 
Q 819 25 488 141 
L 488 750 
Q 750 597 1062 519 
Q 1375 441 1716 441 
Q 2309 441 2620 675 
Q 2931 909 2931 1356 
Q 2931 1769 2642 2001 
Q 2353 2234 1838 2234 
L 1294 2234 
L 1294 2753 
L 1863 2753 
Q 2328 2753 2575 2939 
Q 2822 3125 2822 3475 
Q 2822 3834 2567 4026 
Q 2313 4219 1838 4219 
Q 1578 4219 1281 4162 
Q 984 4106 628 3988 
L 628 4550 
Q 988 4650 1302 4700 
Q 1616 4750 1894 4750 
Q 2613 4750 3031 4423 
Q 3450 4097 3450 3541 
Q 3450 3153 3228 2886 
Q 3006 2619 2597 2516 
z
" transform="scale(0.015625)"/>
       </defs>
       <use xlink:href="#DejaVuSans-33"/>
       <use xlink:href="#DejaVuSans-32" transform="translate(63.623047 0)"/>
       <use xlink:href="#DejaVuSans-78" transform="translate(127.246094 0)"/>
      </g>
     </g>
    </g>
    <g id="xtick_7">
     <g id="line2d_13">
      <path d="M 228.050771 236.015236 
L 228.050771 35.732595 
" clip-path="url(#p878d4748f3)" style="fill: none; stroke-dasharray: 0.5,0.825; stroke-dashoffset: 0; stroke: #b0b0b0; stroke-width: 0.5"/>
     </g>
     <g id="line2d_14">
      <g>
       <use xlink:href="#m721a108d4b" x="228.050771" y="236.015236" style="fill: #ffffff; stroke: #ffffff; stroke-width: 0.8"/>
      </g>
     </g>
     <g id="text_7">
      <!-- 64x -->
      <g style="fill: #ffffff" transform="translate(223.410383 261.571265) rotate(-45) scale(0.1 -0.1)">
       <use xlink:href="#DejaVuSans-36"/>
       <use xlink:href="#DejaVuSans-34" transform="translate(63.623047 0)"/>
       <use xlink:href="#DejaVuSans-78" transform="translate(127.246094 0)"/>
      </g>
     </g>
    </g>
    <g id="xtick_8">
     <g id="line2d_15">
      <path d="M 257.681622 236.015236 
L 257.681622 35.732595 
" clip-path="url(#p878d4748f3)" style="fill: none; stroke-dasharray: 0.5,0.825; stroke-dashoffset: 0; stroke: #b0b0b0; stroke-width: 0.5"/>
     </g>
     <g id="line2d_16">
      <g>
       <use xlink:href="#m721a108d4b" x="257.681622" y="236.015236" style="fill: #ffffff; stroke: #ffffff; stroke-width: 0.8"/>
      </g>
     </g>
     <g id="text_8">
      <!-- 128x -->
      <g style="fill: #ffffff" transform="translate(250.79175 266.070232) rotate(-45) scale(0.1 -0.1)">
       <use xlink:href="#DejaVuSans-31"/>
       <use xlink:href="#DejaVuSans-32" transform="translate(63.623047 0)"/>
       <use xlink:href="#DejaVuSans-38" transform="translate(127.246094 0)"/>
       <use xlink:href="#DejaVuSans-78" transform="translate(190.869141 0)"/>
      </g>
     </g>
    </g>
    <g id="xtick_9">
     <g id="line2d_17">
      <path d="M 287.312473 236.015236 
L 287.312473 35.732595 
" clip-path="url(#p878d4748f3)" style="fill: none; stroke-dasharray: 0.5,0.825; stroke-dashoffset: 0; stroke: #b0b0b0; stroke-width: 0.5"/>
     </g>
     <g id="line2d_18">
      <g>
       <use xlink:href="#m721a108d4b" x="287.312473" y="236.015236" style="fill: #ffffff; stroke: #ffffff; stroke-width: 0.8"/>
      </g>
     </g>
     <g id="text_9">
      <!-- 256x -->
      <g style="fill: #ffffff" transform="translate(280.422601 266.070232) rotate(-45) scale(0.1 -0.1)">
       <defs>
        <path id="DejaVuSans-35" d="M 691 4666 
L 3169 4666 
L 3169 4134 
L 1269 4134 
L 1269 2991 
Q 1406 3038 1543 3061 
Q 1681 3084 1819 3084 
Q 2600 3084 3056 2656 
Q 3513 2228 3513 1497 
Q 3513 744 3044 326 
Q 2575 -91 1722 -91 
Q 1428 -91 1123 -41 
Q 819 9 494 109 
L 494 744 
Q 775 591 1075 516 
Q 1375 441 1709 441 
Q 2250 441 2565 725 
Q 2881 1009 2881 1497 
Q 2881 1984 2565 2268 
Q 2250 2553 1709 2553 
Q 1456 2553 1204 2497 
Q 953 2441 691 2322 
L 691 4666 
z
" transform="scale(0.015625)"/>
       </defs>
       <use xlink:href="#DejaVuSans-32"/>
       <use xlink:href="#DejaVuSans-35" transform="translate(63.623047 0)"/>
       <use xlink:href="#DejaVuSans-36" transform="translate(127.246094 0)"/>
       <use xlink:href="#DejaVuSans-78" transform="translate(190.869141 0)"/>
      </g>
     </g>
    </g>
    <g id="xtick_10">
     <g id="line2d_19">
      <path d="M 316.943324 236.015236 
L 316.943324 35.732595 
" clip-path="url(#p878d4748f3)" style="fill: none; stroke-dasharray: 0.5,0.825; stroke-dashoffset: 0; stroke: #b0b0b0; stroke-width: 0.5"/>
     </g>
     <g id="line2d_20">
      <g>
       <use xlink:href="#m721a108d4b" x="316.943324" y="236.015236" style="fill: #ffffff; stroke: #ffffff; stroke-width: 0.8"/>
      </g>
     </g>
     <g id="text_10">
      <!-- 512x -->
      <g style="fill: #ffffff" transform="translate(310.053452 266.070232) rotate(-45) scale(0.1 -0.1)">
       <use xlink:href="#DejaVuSans-35"/>
       <use xlink:href="#DejaVuSans-31" transform="translate(63.623047 0)"/>
       <use xlink:href="#DejaVuSans-32" transform="translate(127.246094 0)"/>
       <use xlink:href="#DejaVuSans-78" transform="translate(190.869141 0)"/>
      </g>
     </g>
    </g>
    <g id="xtick_11">
     <g id="line2d_21">
      <path d="M 346.574175 236.015236 
L 346.574175 35.732595 
" clip-path="url(#p878d4748f3)" style="fill: none; stroke-dasharray: 0.5,0.825; stroke-dashoffset: 0; stroke: #b0b0b0; stroke-width: 0.5"/>
     </g>
     <g id="line2d_22">
      <g>
       <use xlink:href="#m721a108d4b" x="346.574175" y="236.015236" style="fill: #ffffff; stroke: #ffffff; stroke-width: 0.8"/>
      </g>
     </g>
     <g id="text_11">
      <!-- 1024x -->
      <g style="fill: #ffffff" transform="translate(337.434819 270.569199) rotate(-45) scale(0.1 -0.1)">
       <defs>
        <path id="DejaVuSans-30" d="M 2034 4250 
Q 1547 4250 1301 3770 
Q 1056 3291 1056 2328 
Q 1056 1369 1301 889 
Q 1547 409 2034 409 
Q 2525 409 2770 889 
Q 3016 1369 3016 2328 
Q 3016 3291 2770 3770 
Q 2525 4250 2034 4250 
z
M 2034 4750 
Q 2819 4750 3233 4129 
Q 3647 3509 3647 2328 
Q 3647 1150 3233 529 
Q 2819 -91 2034 -91 
Q 1250 -91 836 529 
Q 422 1150 422 2328 
Q 422 3509 836 4129 
Q 1250 4750 2034 4750 
z
" transform="scale(0.015625)"/>
       </defs>
       <use xlink:href="#DejaVuSans-31"/>
       <use xlink:href="#DejaVuSans-30" transform="translate(63.623047 0)"/>
       <use xlink:href="#DejaVuSans-32" transform="translate(127.246094 0)"/>
       <use xlink:href="#DejaVuSans-34" transform="translate(190.869141 0)"/>
       <use xlink:href="#DejaVuSans-78" transform="translate(254.492188 0)"/>
      </g>
     </g>
    </g>
   </g>
   <g id="matplotlib.axis_2">
    <g id="ytick_1">
     <g id="line2d_23">
      <path d="M 35.45024 236.015236 
L 361.3896 236.015236 
" clip-path="url(#p878d4748f3)" style="fill: none; stroke-dasharray: 0.5,0.825; stroke-dashoffset: 0; stroke: #b0b0b0; stroke-width: 0.5"/>
     </g>
     <g id="line2d_24">
      <defs>
       <path id="m3b93d7c90c" d="M 0 0 
L -3.5 0 
" style="stroke: #ffffff; stroke-width: 0.8"/>
      </defs>
      <g>
       <use xlink:href="#m3b93d7c90c" x="35.45024" y="236.015236" style="fill: #ffffff; stroke: #ffffff; stroke-width: 0.8"/>
      </g>
     </g>
     <g id="text_12">
      <!-- 16 -->
      <g style="fill: #ffffff" transform="translate(15.72524 239.814455) scale(0.1 -0.1)">
       <use xlink:href="#DejaVuSans-31"/>
       <use xlink:href="#DejaVuSans-36" transform="translate(63.623047 0)"/>
      </g>
     </g>
    </g>
    <g id="ytick_2">
     <g id="line2d_25">
      <path d="M 35.45024 207.40343 
L 361.3896 207.40343 
" clip-path="url(#p878d4748f3)" style="fill: none; stroke-dasharray: 0.5,0.825; stroke-dashoffset: 0; stroke: #b0b0b0; stroke-width: 0.5"/>
     </g>
     <g id="line2d_26">
      <g>
       <use xlink:href="#m3b93d7c90c" x="35.45024" y="207.40343" style="fill: #ffffff; stroke: #ffffff; stroke-width: 0.8"/>
      </g>
     </g>
     <g id="text_13">
      <!-- 32 -->
      <g style="fill: #ffffff" transform="translate(15.72524 211.202649) scale(0.1 -0.1)">
       <use xlink:href="#DejaVuSans-33"/>
       <use xlink:href="#DejaVuSans-32" transform="translate(63.623047 0)"/>
      </g>
     </g>
    </g>
    <g id="ytick_3">
     <g id="line2d_27">
      <path d="M 35.45024 178.791625 
L 361.3896 178.791625 
" clip-path="url(#p878d4748f3)" style="fill: none; stroke-dasharray: 0.5,0.825; stroke-dashoffset: 0; stroke: #b0b0b0; stroke-width: 0.5"/>
     </g>
     <g id="line2d_28">
      <g>
       <use xlink:href="#m3b93d7c90c" x="35.45024" y="178.791625" style="fill: #ffffff; stroke: #ffffff; stroke-width: 0.8"/>
      </g>
     </g>
     <g id="text_14">
      <!-- 64 -->
      <g style="fill: #ffffff" transform="translate(15.72524 182.590843) scale(0.1 -0.1)">
       <use xlink:href="#DejaVuSans-36"/>
       <use xlink:href="#DejaVuSans-34" transform="translate(63.623047 0)"/>
      </g>
     </g>
    </g>
    <g id="ytick_4">
     <g id="line2d_29">
      <path d="M 35.45024 150.179819 
L 361.3896 150.179819 
" clip-path="url(#p878d4748f3)" style="fill: none; stroke-dasharray: 0.5,0.825; stroke-dashoffset: 0; stroke: #b0b0b0; stroke-width: 0.5"/>
     </g>
     <g id="line2d_30">
      <g>
       <use xlink:href="#m3b93d7c90c" x="35.45024" y="150.179819" style="fill: #ffffff; stroke: #ffffff; stroke-width: 0.8"/>
      </g>
     </g>
     <g id="text_15">
      <!-- 128 -->
      <g style="fill: #ffffff" transform="translate(9.36274 153.979037) scale(0.1 -0.1)">
       <use xlink:href="#DejaVuSans-31"/>
       <use xlink:href="#DejaVuSans-32" transform="translate(63.623047 0)"/>
       <use xlink:href="#DejaVuSans-38" transform="translate(127.246094 0)"/>
      </g>
     </g>
    </g>
    <g id="ytick_5">
     <g id="line2d_31">
      <path d="M 35.45024 121.568013 
L 361.3896 121.568013 
" clip-path="url(#p878d4748f3)" style="fill: none; stroke-dasharray: 0.5,0.825; stroke-dashoffset: 0; stroke: #b0b0b0; stroke-width: 0.5"/>
     </g>
     <g id="line2d_32">
      <g>
       <use xlink:href="#m3b93d7c90c" x="35.45024" y="121.568013" style="fill: #ffffff; stroke: #ffffff; stroke-width: 0.8"/>
      </g>
     </g>
     <g id="text_16">
      <!-- 256 -->
      <g style="fill: #ffffff" transform="translate(9.36274 125.367231) scale(0.1 -0.1)">
       <use xlink:href="#DejaVuSans-32"/>
       <use xlink:href="#DejaVuSans-35" transform="translate(63.623047 0)"/>
       <use xlink:href="#DejaVuSans-36" transform="translate(127.246094 0)"/>
      </g>
     </g>
    </g>
    <g id="ytick_6">
     <g id="line2d_33">
      <path d="M 35.45024 92.956207 
L 361.3896 92.956207 
" clip-path="url(#p878d4748f3)" style="fill: none; stroke-dasharray: 0.5,0.825; stroke-dashoffset: 0; stroke: #b0b0b0; stroke-width: 0.5"/>
     </g>
     <g id="line2d_34">
      <g>
       <use xlink:href="#m3b93d7c90c" x="35.45024" y="92.956207" style="fill: #ffffff; stroke: #ffffff; stroke-width: 0.8"/>
      </g>
     </g>
     <g id="text_17">
      <!-- 512 -->
      <g style="fill: #ffffff" transform="translate(9.36274 96.755426) scale(0.1 -0.1)">
       <use xlink:href="#DejaVuSans-35"/>
       <use xlink:href="#DejaVuSans-31" transform="translate(63.623047 0)"/>
       <use xlink:href="#DejaVuSans-32" transform="translate(127.246094 0)"/>
      </g>
     </g>
    </g>
    <g id="ytick_7">
     <g id="line2d_35">
      <path d="M 35.45024 64.344401 
L 361.3896 64.344401 
" clip-path="url(#p878d4748f3)" style="fill: none; stroke-dasharray: 0.5,0.825; stroke-dashoffset: 0; stroke: #b0b0b0; stroke-width: 0.5"/>
     </g>
     <g id="line2d_36">
      <g>
       <use xlink:href="#m3b93d7c90c" x="35.45024" y="64.344401" style="fill: #ffffff; stroke: #ffffff; stroke-width: 0.8"/>
      </g>
     </g>
     <g id="text_18">
      <!-- 1024 -->
      <g style="fill: #ffffff" transform="translate(3.00024 68.14362) scale(0.1 -0.1)">
       <use xlink:href="#DejaVuSans-31"/>
       <use xlink:href="#DejaVuSans-30" transform="translate(63.623047 0)"/>
       <use xlink:href="#DejaVuSans-32" transform="translate(127.246094 0)"/>
       <use xlink:href="#DejaVuSans-34" transform="translate(190.869141 0)"/>
      </g>
     </g>
    </g>
    <g id="ytick_8">
     <g id="line2d_37">
      <path d="M 35.45024 35.732595 
L 361.3896 35.732595 
" clip-path="url(#p878d4748f3)" style="fill: none; stroke-dasharray: 0.5,0.825; stroke-dashoffset: 0; stroke: #b0b0b0; stroke-width: 0.5"/>
     </g>
     <g id="line2d_38">
      <g>
       <use xlink:href="#m3b93d7c90c" x="35.45024" y="35.732595" style="fill: #ffffff; stroke: #ffffff; stroke-width: 0.8"/>
      </g>
     </g>
     <g id="text_19">
      <!-- 2048 -->
      <g style="fill: #ffffff" transform="translate(3.00024 39.531814) scale(0.1 -0.1)">
       <use xlink:href="#DejaVuSans-32"/>
       <use xlink:href="#DejaVuSans-30" transform="translate(63.623047 0)"/>
       <use xlink:href="#DejaVuSans-34" transform="translate(127.246094 0)"/>
       <use xlink:href="#DejaVuSans-38" transform="translate(190.869141 0)"/>
      </g>
     </g>
    </g>
   </g>
   <g id="line2d_39">
    <path d="M 245.383708 236.015236 
L 245.383708 35.732595 
" clip-path="url(#p878d4748f3)" style="fill: none; stroke-dasharray: 5.55,2.4; stroke-dashoffset: 0; stroke: #1f77b4; stroke-width: 1.5"/>
   </g>
   <g id="line2d_40">
    <path d="M 50.265665 186.251238 
L 79.896516 182.566963 
L 109.527367 174.490542 
L 139.158218 158.956533 
L 168.789069 151.796205 
L 198.41992 141.793997 
L 228.050771 141.208265 
L 245.383708 140.958099 
L 257.681622 128.816148 
L 287.312473 100.50059 
L 316.943324 74.767574 
L 346.574175 46.96084 
" clip-path="url(#p878d4748f3)" style="fill: none; stroke: #1f77b4; stroke-width: 1.5; stroke-linecap: square"/>
   </g>
   <g id="line2d_41">
    <defs>
     <path id="m354ec30b46" d="M 0 3 
C 0.795609 3 1.55874 2.683901 2.12132 2.12132 
C 2.683901 1.55874 3 0.795609 3 0 
C 3 -0.795609 2.683901 -1.55874 2.12132 -2.12132 
C 1.55874 -2.683901 0.795609 -3 0 -3 
C -0.795609 -3 -1.55874 -2.683901 -2.12132 -2.12132 
C -2.683901 -1.55874 -3 -0.795609 -3 0 
C -3 0.795609 -2.683901 1.55874 -2.12132 2.12132 
C -1.55874 2.683901 -0.795609 3 0 3 
z
" style="stroke: #1f77b4"/>
    </defs>
    <g clip-path="url(#p878d4748f3)">
     <use xlink:href="#m354ec30b46" x="50.265665" y="186.251238" style="fill: #1f77b4; stroke: #1f77b4"/>
     <use xlink:href="#m354ec30b46" x="79.896516" y="182.566963" style="fill: #1f77b4; stroke: #1f77b4"/>
     <use xlink:href="#m354ec30b46" x="109.527367" y="174.490542" style="fill: #1f77b4; stroke: #1f77b4"/>
     <use xlink:href="#m354ec30b46" x="139.158218" y="158.956533" style="fill: #1f77b4; stroke: #1f77b4"/>
     <use xlink:href="#m354ec30b46" x="168.789069" y="151.796205" style="fill: #1f77b4; stroke: #1f77b4"/>
     <use xlink:href="#m354ec30b46" x="198.41992" y="141.793997" style="fill: #1f77b4; stroke: #1f77b4"/>
     <use xlink:href="#m354ec30b46" x="228.050771" y="141.208265" style="fill: #1f77b4; stroke: #1f77b4"/>
     <use xlink:href="#m354ec30b46" x="245.383708" y="140.958099" style="fill: #1f77b4; stroke: #1f77b4"/>
     <use xlink:href="#m354ec30b46" x="257.681622" y="128.816148" style="fill: #1f77b4; stroke: #1f77b4"/>
     <use xlink:href="#m354ec30b46" x="287.312473" y="100.50059" style="fill: #1f77b4; stroke: #1f77b4"/>
     <use xlink:href="#m354ec30b46" x="316.943324" y="74.767574" style="fill: #1f77b4; stroke: #1f77b4"/>
     <use xlink:href="#m354ec30b46" x="346.574175" y="46.96084" style="fill: #1f77b4; stroke: #1f77b4"/>
    </g>
   </g>
   <g id="line2d_42">
    <path d="M 50.265665 221.342392 
L 79.896516 219.64047 
L 109.527367 217.063581 
L 139.158218 211.854123 
L 168.789069 206.024454 
L 198.41992 197.655716 
L 228.050771 184.743894 
L 257.681622 163.846688 
L 287.312473 142.241753 
L 316.943324 118.507148 
L 346.574175 91.947317 
" clip-path="url(#p878d4748f3)" style="fill: none; stroke: #ff7f0e; stroke-width: 1.5; stroke-linecap: square"/>
   </g>
   <g id="line2d_43">
    <defs>
     <path id="m2e0d161c79" d="M 0 3 
C 0.795609 3 1.55874 2.683901 2.12132 2.12132 
C 2.683901 1.55874 3 0.795609 3 0 
C 3 -0.795609 2.683901 -1.55874 2.12132 -2.12132 
C 1.55874 -2.683901 0.795609 -3 0 -3 
C -0.795609 -3 -1.55874 -2.683901 -2.12132 -2.12132 
C -2.683901 -1.55874 -3 -0.795609 -3 0 
C -3 0.795609 -2.683901 1.55874 -2.12132 2.12132 
C -1.55874 2.683901 -0.795609 3 0 3 
z
" style="stroke: #ff7f0e"/>
    </defs>
    <g clip-path="url(#p878d4748f3)">
     <use xlink:href="#m2e0d161c79" x="50.265665" y="221.342392" style="fill: #ff7f0e; stroke: #ff7f0e"/>
     <use xlink:href="#m2e0d161c79" x="79.896516" y="219.64047" style="fill: #ff7f0e; stroke: #ff7f0e"/>
     <use xlink:href="#m2e0d161c79" x="109.527367" y="217.063581" style="fill: #ff7f0e; stroke: #ff7f0e"/>
     <use xlink:href="#m2e0d161c79" x="139.158218" y="211.854123" style="fill: #ff7f0e; stroke: #ff7f0e"/>
     <use xlink:href="#m2e0d161c79" x="168.789069" y="206.024454" style="fill: #ff7f0e; stroke: #ff7f0e"/>
     <use xlink:href="#m2e0d161c79" x="198.41992" y="197.655716" style="fill: #ff7f0e; stroke: #ff7f0e"/>
     <use xlink:href="#m2e0d161c79" x="228.050771" y="184.743894" style="fill: #ff7f0e; stroke: #ff7f0e"/>
     <use xlink:href="#m2e0d161c79" x="257.681622" y="163.846688" style="fill: #ff7f0e; stroke: #ff7f0e"/>
     <use xlink:href="#m2e0d161c79" x="287.312473" y="142.241753" style="fill: #ff7f0e; stroke: #ff7f0e"/>
     <use xlink:href="#m2e0d161c79" x="316.943324" y="118.507148" style="fill: #ff7f0e; stroke: #ff7f0e"/>
     <use xlink:href="#m2e0d161c79" x="346.574175" y="91.947317" style="fill: #ff7f0e; stroke: #ff7f0e"/>
    </g>
   </g>
   <g id="patch_3">
    <path d="M 35.45024 236.015236 
L 35.45024 35.732595 
" style="fill: none; stroke: #000000; stroke-width: 0.8; stroke-linejoin: miter; stroke-linecap: square"/>
   </g>
   <g id="patch_4">
    <path d="M 361.3896 236.015236 
L 361.3896 35.732595 
" style="fill: none; stroke: #000000; stroke-width: 0.8; stroke-linejoin: miter; stroke-linecap: square"/>
   </g>
   <g id="patch_5">
    <path d="M 35.45024 236.015236 
L 361.3896 236.015236 
" style="fill: none; stroke: #000000; stroke-width: 0.8; stroke-linejoin: miter; stroke-linecap: square"/>
   </g>
   <g id="patch_6">
    <path d="M 35.45024 35.732595 
L 361.3896 35.732595 
" style="fill: none; stroke: #000000; stroke-width: 0.8; stroke-linejoin: miter; stroke-linecap: square"/>
   </g>
   <g id="patch_7">
    <path d="M 242.491359 105.831519 
Q 146.93752 105.831519 51.383681 105.831519 
" style="fill: none; stroke: #1f77b4; stroke-width: 0.8; stroke-linecap: round"/>
    <path d="M 238.491359 103.831519 
L 242.491359 105.831519 
L 238.491359 107.831519 
" style="fill: none; stroke: #1f77b4; stroke-width: 0.8; stroke-linecap: round"/>
    <path d="M 55.383681 107.831519 
L 51.383681 105.831519 
L 55.383681 103.831519 
" style="fill: none; stroke: #1f77b4; stroke-width: 0.8; stroke-linecap: round"/>
   </g>
   <g id="text_20">
    <g id="patch_8">
     <path d="M 106.278853 113.860859 
L 187.592669 113.860859 
L 187.592669 97.80218 
L 106.278853 97.80218 
z
" style="fill: #ffffff; stroke: #ffffff; stroke-linejoin: miter"/>
    </g>
    <!-- weak CPU scaling -->
    <g style="fill: #1f77b4" transform="translate(110.277253 108.130079) scale(0.0833 -0.0833)">
     <defs>
      <path id="DejaVuSans-77" d="M 269 3500 
L 844 3500 
L 1563 769 
L 2278 3500 
L 2956 3500 
L 3675 769 
L 4391 3500 
L 4966 3500 
L 4050 0 
L 3372 0 
L 2619 2869 
L 1863 0 
L 1184 0 
L 269 3500 
z
" transform="scale(0.015625)"/>
      <path id="DejaVuSans-65" d="M 3597 1894 
L 3597 1613 
L 953 1613 
Q 991 1019 1311 708 
Q 1631 397 2203 397 
Q 2534 397 2845 478 
Q 3156 559 3463 722 
L 3463 178 
Q 3153 47 2828 -22 
Q 2503 -91 2169 -91 
Q 1331 -91 842 396 
Q 353 884 353 1716 
Q 353 2575 817 3079 
Q 1281 3584 2069 3584 
Q 2775 3584 3186 3129 
Q 3597 2675 3597 1894 
z
M 3022 2063 
Q 3016 2534 2758 2815 
Q 2500 3097 2075 3097 
Q 1594 3097 1305 2825 
Q 1016 2553 972 2059 
L 3022 2063 
z
" transform="scale(0.015625)"/>
      <path id="DejaVuSans-61" d="M 2194 1759 
Q 1497 1759 1228 1600 
Q 959 1441 959 1056 
Q 959 750 1161 570 
Q 1363 391 1709 391 
Q 2188 391 2477 730 
Q 2766 1069 2766 1631 
L 2766 1759 
L 2194 1759 
z
M 3341 1997 
L 3341 0 
L 2766 0 
L 2766 531 
Q 2569 213 2275 61 
Q 1981 -91 1556 -91 
Q 1019 -91 701 211 
Q 384 513 384 1019 
Q 384 1609 779 1909 
Q 1175 2209 1959 2209 
L 2766 2209 
L 2766 2266 
Q 2766 2663 2505 2880 
Q 2244 3097 1772 3097 
Q 1472 3097 1187 3025 
Q 903 2953 641 2809 
L 641 3341 
Q 956 3463 1253 3523 
Q 1550 3584 1831 3584 
Q 2591 3584 2966 3190 
Q 3341 2797 3341 1997 
z
" transform="scale(0.015625)"/>
      <path id="DejaVuSans-6b" d="M 581 4863 
L 1159 4863 
L 1159 1991 
L 2875 3500 
L 3609 3500 
L 1753 1863 
L 3688 0 
L 2938 0 
L 1159 1709 
L 1159 0 
L 581 0 
L 581 4863 
z
" transform="scale(0.015625)"/>
      <path id="DejaVuSans-20" transform="scale(0.015625)"/>
      <path id="DejaVuSans-43" d="M 4122 4306 
L 4122 3641 
Q 3803 3938 3442 4084 
Q 3081 4231 2675 4231 
Q 1875 4231 1450 3742 
Q 1025 3253 1025 2328 
Q 1025 1406 1450 917 
Q 1875 428 2675 428 
Q 3081 428 3442 575 
Q 3803 722 4122 1019 
L 4122 359 
Q 3791 134 3420 21 
Q 3050 -91 2638 -91 
Q 1578 -91 968 557 
Q 359 1206 359 2328 
Q 359 3453 968 4101 
Q 1578 4750 2638 4750 
Q 3056 4750 3426 4639 
Q 3797 4528 4122 4306 
z
" transform="scale(0.015625)"/>
      <path id="DejaVuSans-50" d="M 1259 4147 
L 1259 2394 
L 2053 2394 
Q 2494 2394 2734 2622 
Q 2975 2850 2975 3272 
Q 2975 3691 2734 3919 
Q 2494 4147 2053 4147 
L 1259 4147 
z
M 628 4666 
L 2053 4666 
Q 2838 4666 3239 4311 
Q 3641 3956 3641 3272 
Q 3641 2581 3239 2228 
Q 2838 1875 2053 1875 
L 1259 1875 
L 1259 0 
L 628 0 
L 628 4666 
z
" transform="scale(0.015625)"/>
      <path id="DejaVuSans-55" d="M 556 4666 
L 1191 4666 
L 1191 1831 
Q 1191 1081 1462 751 
Q 1734 422 2344 422 
Q 2950 422 3222 751 
Q 3494 1081 3494 1831 
L 3494 4666 
L 4128 4666 
L 4128 1753 
Q 4128 841 3676 375 
Q 3225 -91 2344 -91 
Q 1459 -91 1007 375 
Q 556 841 556 1753 
L 556 4666 
z
" transform="scale(0.015625)"/>
      <path id="DejaVuSans-73" d="M 2834 3397 
L 2834 2853 
Q 2591 2978 2328 3040 
Q 2066 3103 1784 3103 
Q 1356 3103 1142 2972 
Q 928 2841 928 2578 
Q 928 2378 1081 2264 
Q 1234 2150 1697 2047 
L 1894 2003 
Q 2506 1872 2764 1633 
Q 3022 1394 3022 966 
Q 3022 478 2636 193 
Q 2250 -91 1575 -91 
Q 1294 -91 989 -36 
Q 684 19 347 128 
L 347 722 
Q 666 556 975 473 
Q 1284 391 1588 391 
Q 1994 391 2212 530 
Q 2431 669 2431 922 
Q 2431 1156 2273 1281 
Q 2116 1406 1581 1522 
L 1381 1569 
Q 847 1681 609 1914 
Q 372 2147 372 2553 
Q 372 3047 722 3315 
Q 1072 3584 1716 3584 
Q 2034 3584 2315 3537 
Q 2597 3491 2834 3397 
z
" transform="scale(0.015625)"/>
      <path id="DejaVuSans-63" d="M 3122 3366 
L 3122 2828 
Q 2878 2963 2633 3030 
Q 2388 3097 2138 3097 
Q 1578 3097 1268 2742 
Q 959 2388 959 1747 
Q 959 1106 1268 751 
Q 1578 397 2138 397 
Q 2388 397 2633 464 
Q 2878 531 3122 666 
L 3122 134 
Q 2881 22 2623 -34 
Q 2366 -91 2075 -91 
Q 1284 -91 818 406 
Q 353 903 353 1747 
Q 353 2603 823 3093 
Q 1294 3584 2113 3584 
Q 2378 3584 2631 3529 
Q 2884 3475 3122 3366 
z
" transform="scale(0.015625)"/>
      <path id="DejaVuSans-6c" d="M 603 4863 
L 1178 4863 
L 1178 0 
L 603 0 
L 603 4863 
z
" transform="scale(0.015625)"/>
      <path id="DejaVuSans-69" d="M 603 3500 
L 1178 3500 
L 1178 0 
L 603 0 
L 603 3500 
z
M 603 4863 
L 1178 4863 
L 1178 4134 
L 603 4134 
L 603 4863 
z
" transform="scale(0.015625)"/>
      <path id="DejaVuSans-6e" d="M 3513 2113 
L 3513 0 
L 2938 0 
L 2938 2094 
Q 2938 2591 2744 2837 
Q 2550 3084 2163 3084 
Q 1697 3084 1428 2787 
Q 1159 2491 1159 1978 
L 1159 0 
L 581 0 
L 581 3500 
L 1159 3500 
L 1159 2956 
Q 1366 3272 1645 3428 
Q 1925 3584 2291 3584 
Q 2894 3584 3203 3211 
Q 3513 2838 3513 2113 
z
" transform="scale(0.015625)"/>
      <path id="DejaVuSans-67" d="M 2906 1791 
Q 2906 2416 2648 2759 
Q 2391 3103 1925 3103 
Q 1463 3103 1205 2759 
Q 947 2416 947 1791 
Q 947 1169 1205 825 
Q 1463 481 1925 481 
Q 2391 481 2648 825 
Q 2906 1169 2906 1791 
z
M 3481 434 
Q 3481 -459 3084 -895 
Q 2688 -1331 1869 -1331 
Q 1566 -1331 1297 -1286 
Q 1028 -1241 775 -1147 
L 775 -588 
Q 1028 -725 1275 -790 
Q 1522 -856 1778 -856 
Q 2344 -856 2625 -561 
Q 2906 -266 2906 331 
L 2906 616 
Q 2728 306 2450 153 
Q 2172 0 1784 0 
Q 1141 0 747 490 
Q 353 981 353 1791 
Q 353 2603 747 3093 
Q 1141 3584 1784 3584 
Q 2172 3584 2450 3431 
Q 2728 3278 2906 2969 
L 2906 3500 
L 3481 3500 
L 3481 434 
z
" transform="scale(0.015625)"/>
     </defs>
     <use xlink:href="#DejaVuSans-77"/>
     <use xlink:href="#DejaVuSans-65" transform="translate(81.787109 0)"/>
     <use xlink:href="#DejaVuSans-61" transform="translate(143.310547 0)"/>
     <use xlink:href="#DejaVuSans-6b" transform="translate(204.589844 0)"/>
     <use xlink:href="#DejaVuSans-20" transform="translate(262.5 0)"/>
     <use xlink:href="#DejaVuSans-43" transform="translate(294.287109 0)"/>
     <use xlink:href="#DejaVuSans-50" transform="translate(364.111328 0)"/>
     <use xlink:href="#DejaVuSans-55" transform="translate(424.414062 0)"/>
     <use xlink:href="#DejaVuSans-20" transform="translate(497.607422 0)"/>
     <use xlink:href="#DejaVuSans-73" transform="translate(529.394531 0)"/>
     <use xlink:href="#DejaVuSans-63" transform="translate(581.494141 0)"/>
     <use xlink:href="#DejaVuSans-61" transform="translate(636.474609 0)"/>
     <use xlink:href="#DejaVuSans-6c" transform="translate(697.753906 0)"/>
     <use xlink:href="#DejaVuSans-69" transform="translate(725.537109 0)"/>
     <use xlink:href="#DejaVuSans-6e" transform="translate(753.320312 0)"/>
     <use xlink:href="#DejaVuSans-67" transform="translate(816.699219 0)"/>
    </g>
   </g>
   <g id="patch_9">
    <path d="M 248.279808 211.981319 
Q 296.868835 211.981319 345.457862 211.981319 
" style="fill: none; stroke: #1f77b4; stroke-width: 0.8; stroke-linecap: round"/>
    <path d="M 252.279808 213.981319 
L 248.279808 211.981319 
L 252.279808 209.981319 
" style="fill: none; stroke: #1f77b4; stroke-width: 0.8; stroke-linecap: round"/>
    <path d="M 341.457862 209.981319 
L 345.457862 211.981319 
L 341.457862 213.981319 
" style="fill: none; stroke: #1f77b4; stroke-width: 0.8; stroke-linecap: round"/>
   </g>
   <g id="text_21">
    <g id="patch_10">
     <path d="M 270.742904 220.010658 
L 322.992829 220.010658 
L 322.992829 203.95198 
L 270.742904 203.95198 
z
" style="fill: #ffffff; stroke: #ffffff; stroke-linejoin: miter"/>
    </g>
    <!-- fixed CPUs -->
    <g style="fill: #1f77b4" transform="translate(274.741304 214.279879) scale(0.0833 -0.0833)">
     <defs>
      <path id="DejaVuSans-66" d="M 2375 4863 
L 2375 4384 
L 1825 4384 
Q 1516 4384 1395 4259 
Q 1275 4134 1275 3809 
L 1275 3500 
L 2222 3500 
L 2222 3053 
L 1275 3053 
L 1275 0 
L 697 0 
L 697 3053 
L 147 3053 
L 147 3500 
L 697 3500 
L 697 3744 
Q 697 4328 969 4595 
Q 1241 4863 1831 4863 
L 2375 4863 
z
" transform="scale(0.015625)"/>
      <path id="DejaVuSans-64" d="M 2906 2969 
L 2906 4863 
L 3481 4863 
L 3481 0 
L 2906 0 
L 2906 525 
Q 2725 213 2448 61 
Q 2172 -91 1784 -91 
Q 1150 -91 751 415 
Q 353 922 353 1747 
Q 353 2572 751 3078 
Q 1150 3584 1784 3584 
Q 2172 3584 2448 3432 
Q 2725 3281 2906 2969 
z
M 947 1747 
Q 947 1113 1208 752 
Q 1469 391 1925 391 
Q 2381 391 2643 752 
Q 2906 1113 2906 1747 
Q 2906 2381 2643 2742 
Q 2381 3103 1925 3103 
Q 1469 3103 1208 2742 
Q 947 2381 947 1747 
z
" transform="scale(0.015625)"/>
     </defs>
     <use xlink:href="#DejaVuSans-66"/>
     <use xlink:href="#DejaVuSans-69" transform="translate(35.205078 0)"/>
     <use xlink:href="#DejaVuSans-78" transform="translate(62.988281 0)"/>
     <use xlink:href="#DejaVuSans-65" transform="translate(119.042969 0)"/>
     <use xlink:href="#DejaVuSans-64" transform="translate(180.566406 0)"/>
     <use xlink:href="#DejaVuSans-20" transform="translate(244.042969 0)"/>
     <use xlink:href="#DejaVuSans-43" transform="translate(275.830078 0)"/>
     <use xlink:href="#DejaVuSans-50" transform="translate(345.654297 0)"/>
     <use xlink:href="#DejaVuSans-55" transform="translate(405.957031 0)"/>
     <use xlink:href="#DejaVuSans-73" transform="translate(479.150391 0)"/>
    </g>
   </g>
   <g id="text_22">
    <!-- Ocean dynamics -->
    <g style="fill: #ffffff" transform="translate(148.543982 29.732595) scale(0.12 -0.12)">
     <defs>
      <path id="DejaVuSans-4f" d="M 2522 4238 
Q 1834 4238 1429 3725 
Q 1025 3213 1025 2328 
Q 1025 1447 1429 934 
Q 1834 422 2522 422 
Q 3209 422 3611 934 
Q 4013 1447 4013 2328 
Q 4013 3213 3611 3725 
Q 3209 4238 2522 4238 
z
M 2522 4750 
Q 3503 4750 4090 4092 
Q 4678 3434 4678 2328 
Q 4678 1225 4090 567 
Q 3503 -91 2522 -91 
Q 1538 -91 948 565 
Q 359 1222 359 2328 
Q 359 3434 948 4092 
Q 1538 4750 2522 4750 
z
" transform="scale(0.015625)"/>
      <path id="DejaVuSans-79" d="M 2059 -325 
Q 1816 -950 1584 -1140 
Q 1353 -1331 966 -1331 
L 506 -1331 
L 506 -850 
L 844 -850 
Q 1081 -850 1212 -737 
Q 1344 -625 1503 -206 
L 1606 56 
L 191 3500 
L 800 3500 
L 1894 763 
L 2988 3500 
L 3597 3500 
L 2059 -325 
z
" transform="scale(0.015625)"/>
      <path id="DejaVuSans-6d" d="M 3328 2828 
Q 3544 3216 3844 3400 
Q 4144 3584 4550 3584 
Q 5097 3584 5394 3201 
Q 5691 2819 5691 2113 
L 5691 0 
L 5113 0 
L 5113 2094 
Q 5113 2597 4934 2840 
Q 4756 3084 4391 3084 
Q 3944 3084 3684 2787 
Q 3425 2491 3425 1978 
L 3425 0 
L 2847 0 
L 2847 2094 
Q 2847 2600 2669 2842 
Q 2491 3084 2119 3084 
Q 1678 3084 1418 2786 
Q 1159 2488 1159 1978 
L 1159 0 
L 581 0 
L 581 3500 
L 1159 3500 
L 1159 2956 
Q 1356 3278 1631 3431 
Q 1906 3584 2284 3584 
Q 2666 3584 2933 3390 
Q 3200 3197 3328 2828 
z
" transform="scale(0.015625)"/>
     </defs>
     <use xlink:href="#DejaVuSans-4f"/>
     <use xlink:href="#DejaVuSans-63" transform="translate(78.710938 0)"/>
     <use xlink:href="#DejaVuSans-65" transform="translate(133.691406 0)"/>
     <use xlink:href="#DejaVuSans-61" transform="translate(195.214844 0)"/>
     <use xlink:href="#DejaVuSans-6e" transform="translate(256.494141 0)"/>
     <use xlink:href="#DejaVuSans-20" transform="translate(319.873047 0)"/>
     <use xlink:href="#DejaVuSans-64" transform="translate(351.660156 0)"/>
     <use xlink:href="#DejaVuSans-79" transform="translate(415.136719 0)"/>
     <use xlink:href="#DejaVuSans-6e" transform="translate(474.316406 0)"/>
     <use xlink:href="#DejaVuSans-61" transform="translate(537.695312 0)"/>
     <use xlink:href="#DejaVuSans-6d" transform="translate(598.974609 0)"/>
     <use xlink:href="#DejaVuSans-69" transform="translate(696.386719 0)"/>
     <use xlink:href="#DejaVuSans-63" transform="translate(724.169922 0)"/>
     <use xlink:href="#DejaVuSans-73" transform="translate(779.150391 0)"/>
    </g>
   </g>
   <g id="legend_1">
    <g id="patch_11">
     <path d="M 42.45024 73.088845 
L 168.897115 73.088845 
Q 170.897115 73.088845 170.897115 71.088845 
L 170.897115 42.732595 
Q 170.897115 40.732595 168.897115 40.732595 
L 42.45024 40.732595 
Q 40.45024 40.732595 40.45024 42.732595 
L 40.45024 71.088845 
Q 40.45024 73.088845 42.45024 73.088845 
z
" style="fill: #ffffff; opacity: 0.8; stroke: #cccccc; stroke-linejoin: miter"/>
    </g>
    <g id="line2d_44">
     <path d="M 44.45024 48.831032 
L 54.45024 48.831032 
L 64.45024 48.831032 
" style="fill: none; stroke: #1f77b4; stroke-width: 1.5; stroke-linecap: square"/>
    </g>
    <g id="text_23">
     <!-- dev/gfdl (Gaea C6) -->
     <g transform="translate(72.45024 52.331032) scale(0.1 -0.1)">
      <defs>
       <path id="DejaVuSans-76" d="M 191 3500 
L 800 3500 
L 1894 563 
L 2988 3500 
L 3597 3500 
L 2284 0 
L 1503 0 
L 191 3500 
z
" transform="scale(0.015625)"/>
       <path id="DejaVuSans-2f" d="M 1625 4666 
L 2156 4666 
L 531 -594 
L 0 -594 
L 1625 4666 
z
" transform="scale(0.015625)"/>
       <path id="DejaVuSans-28" d="M 1984 4856 
Q 1566 4138 1362 3434 
Q 1159 2731 1159 2009 
Q 1159 1288 1364 580 
Q 1569 -128 1984 -844 
L 1484 -844 
Q 1016 -109 783 600 
Q 550 1309 550 2009 
Q 550 2706 781 3412 
Q 1013 4119 1484 4856 
L 1984 4856 
z
" transform="scale(0.015625)"/>
       <path id="DejaVuSans-47" d="M 3809 666 
L 3809 1919 
L 2778 1919 
L 2778 2438 
L 4434 2438 
L 4434 434 
Q 4069 175 3628 42 
Q 3188 -91 2688 -91 
Q 1594 -91 976 548 
Q 359 1188 359 2328 
Q 359 3472 976 4111 
Q 1594 4750 2688 4750 
Q 3144 4750 3555 4637 
Q 3966 4525 4313 4306 
L 4313 3634 
Q 3963 3931 3569 4081 
Q 3175 4231 2741 4231 
Q 1884 4231 1454 3753 
Q 1025 3275 1025 2328 
Q 1025 1384 1454 906 
Q 1884 428 2741 428 
Q 3075 428 3337 486 
Q 3600 544 3809 666 
z
" transform="scale(0.015625)"/>
       <path id="DejaVuSans-29" d="M 513 4856 
L 1013 4856 
Q 1481 4119 1714 3412 
Q 1947 2706 1947 2009 
Q 1947 1309 1714 600 
Q 1481 -109 1013 -844 
L 513 -844 
Q 928 -128 1133 580 
Q 1338 1288 1338 2009 
Q 1338 2731 1133 3434 
Q 928 4138 513 4856 
z
" transform="scale(0.015625)"/>
      </defs>
      <use xlink:href="#DejaVuSans-64"/>
      <use xlink:href="#DejaVuSans-65" transform="translate(63.476562 0)"/>
      <use xlink:href="#DejaVuSans-76" transform="translate(125 0)"/>
      <use xlink:href="#DejaVuSans-2f" transform="translate(184.179688 0)"/>
      <use xlink:href="#DejaVuSans-67" transform="translate(217.871094 0)"/>
      <use xlink:href="#DejaVuSans-66" transform="translate(281.347656 0)"/>
      <use xlink:href="#DejaVuSans-64" transform="translate(316.552734 0)"/>
      <use xlink:href="#DejaVuSans-6c" transform="translate(380.029297 0)"/>
      <use xlink:href="#DejaVuSans-20" transform="translate(407.8125 0)"/>
      <use xlink:href="#DejaVuSans-28" transform="translate(439.599609 0)"/>
      <use xlink:href="#DejaVuSans-47" transform="translate(478.613281 0)"/>
      <use xlink:href="#DejaVuSans-61" transform="translate(556.103516 0)"/>
      <use xlink:href="#DejaVuSans-65" transform="translate(617.382812 0)"/>
      <use xlink:href="#DejaVuSans-61" transform="translate(678.90625 0)"/>
      <use xlink:href="#DejaVuSans-20" transform="translate(740.185547 0)"/>
      <use xlink:href="#DejaVuSans-43" transform="translate(771.972656 0)"/>
      <use xlink:href="#DejaVuSans-36" transform="translate(841.796875 0)"/>
      <use xlink:href="#DejaVuSans-29" transform="translate(905.419922 0)"/>
     </g>
    </g>
    <g id="line2d_45">
     <path d="M 44.45024 63.509157 
L 54.45024 63.509157 
L 64.45024 63.509157 
" style="fill: none; stroke: #ff7f0e; stroke-width: 1.5; stroke-linecap: square"/>
    </g>
    <g id="text_24">
     <!-- dev/gpu (GH200) -->
     <g transform="translate(72.45024 67.009157) scale(0.1 -0.1)">
      <defs>
       <path id="DejaVuSans-70" d="M 1159 525 
L 1159 -1331 
L 581 -1331 
L 581 3500 
L 1159 3500 
L 1159 2969 
Q 1341 3281 1617 3432 
Q 1894 3584 2278 3584 
Q 2916 3584 3314 3078 
Q 3713 2572 3713 1747 
Q 3713 922 3314 415 
Q 2916 -91 2278 -91 
Q 1894 -91 1617 61 
Q 1341 213 1159 525 
z
M 3116 1747 
Q 3116 2381 2855 2742 
Q 2594 3103 2138 3103 
Q 1681 3103 1420 2742 
Q 1159 2381 1159 1747 
Q 1159 1113 1420 752 
Q 1681 391 2138 391 
Q 2594 391 2855 752 
Q 3116 1113 3116 1747 
z
" transform="scale(0.015625)"/>
       <path id="DejaVuSans-75" d="M 544 1381 
L 544 3500 
L 1119 3500 
L 1119 1403 
Q 1119 906 1312 657 
Q 1506 409 1894 409 
Q 2359 409 2629 706 
Q 2900 1003 2900 1516 
L 2900 3500 
L 3475 3500 
L 3475 0 
L 2900 0 
L 2900 538 
Q 2691 219 2414 64 
Q 2138 -91 1772 -91 
Q 1169 -91 856 284 
Q 544 659 544 1381 
z
M 1991 3584 
L 1991 3584 
z
" transform="scale(0.015625)"/>
       <path id="DejaVuSans-48" d="M 628 4666 
L 1259 4666 
L 1259 2753 
L 3553 2753 
L 3553 4666 
L 4184 4666 
L 4184 0 
L 3553 0 
L 3553 2222 
L 1259 2222 
L 1259 0 
L 628 0 
L 628 4666 
z
" transform="scale(0.015625)"/>
      </defs>
      <use xlink:href="#DejaVuSans-64"/>
      <use xlink:href="#DejaVuSans-65" transform="translate(63.476562 0)"/>
      <use xlink:href="#DejaVuSans-76" transform="translate(125 0)"/>
      <use xlink:href="#DejaVuSans-2f" transform="translate(184.179688 0)"/>
      <use xlink:href="#DejaVuSans-67" transform="translate(217.871094 0)"/>
      <use xlink:href="#DejaVuSans-70" transform="translate(281.347656 0)"/>
      <use xlink:href="#DejaVuSans-75" transform="translate(344.824219 0)"/>
      <use xlink:href="#DejaVuSans-20" transform="translate(408.203125 0)"/>
      <use xlink:href="#DejaVuSans-28" transform="translate(439.990234 0)"/>
      <use xlink:href="#DejaVuSans-47" transform="translate(479.003906 0)"/>
      <use xlink:href="#DejaVuSans-48" transform="translate(556.494141 0)"/>
      <use xlink:href="#DejaVuSans-32" transform="translate(631.689453 0)"/>
      <use xlink:href="#DejaVuSans-30" transform="translate(695.3125 0)"/>
      <use xlink:href="#DejaVuSans-30" transform="translate(758.935547 0)"/>
      <use xlink:href="#DejaVuSans-29" transform="translate(822.558594 0)"/>
     </g>
    </g>
   </g>
  </g>
  <g id="axes_2">
   <g id="patch_12">
    <path d="M 401.1404 236.015236 
L 727.07976 236.015236 
L 727.07976 35.732595 
L 401.1404 35.732595 
z
" style="fill: #ffffff"/>
   </g>
   <g id="FillBetweenPolyCollection_2">
    <path d="M 415.955825 185.086719 
L 415.955825 185.086719 
L 445.586676 181.204275 
L 475.217527 172.927144 
L 504.848378 156.85263 
L 534.479229 149.375986 
L 564.11008 138.82511 
L 593.740931 137.735164 
L 611.073868 136.51449 
L 623.371782 124.737785 
L 653.002633 96.209623 
L 682.633484 71.293742 
L 712.264335 42.251581 
L 712.264335 42.251351 
L 712.264335 42.251351 
L 682.633484 71.293407 
L 653.002633 96.209299 
L 623.371782 124.737121 
L 611.073868 136.513738 
L 593.740931 137.734502 
L 564.11008 138.824569 
L 534.479229 149.375564 
L 504.848378 156.852281 
L 475.217527 172.926902 
L 445.586676 181.20427 
L 415.955825 185.086719 
z
" clip-path="url(#p8526927922)" style="fill: #1f77b4; fill-opacity: 0.15"/>
   </g>
   <g id="matplotlib.axis_3">
    <g id="xtick_12">
     <g id="line2d_46">
      <path d="M 415.955825 236.015236 
L 415.955825 35.732595 
" clip-path="url(#p8526927922)" style="fill: none; stroke-dasharray: 0.5,0.825; stroke-dashoffset: 0; stroke: #b0b0b0; stroke-width: 0.5"/>
     </g>
     <g id="line2d_47">
      <g>
       <use xlink:href="#m721a108d4b" x="415.955825" y="236.015236" style="fill: #ffffff; stroke: #ffffff; stroke-width: 0.8"/>
      </g>
     </g>
     <g id="text_25">
      <!-- 1x -->
      <g style="fill: #ffffff" transform="translate(413.564921 257.072298) rotate(-45) scale(0.1 -0.1)">
       <use xlink:href="#DejaVuSans-31"/>
       <use xlink:href="#DejaVuSans-78" transform="translate(63.623047 0)"/>
      </g>
     </g>
    </g>
    <g id="xtick_13">
     <g id="line2d_48">
      <path d="M 445.586676 236.015236 
L 445.586676 35.732595 
" clip-path="url(#p8526927922)" style="fill: none; stroke-dasharray: 0.5,0.825; stroke-dashoffset: 0; stroke: #b0b0b0; stroke-width: 0.5"/>
     </g>
     <g id="line2d_49">
      <g>
       <use xlink:href="#m721a108d4b" x="445.586676" y="236.015236" style="fill: #ffffff; stroke: #ffffff; stroke-width: 0.8"/>
      </g>
     </g>
     <g id="text_26">
      <!-- 2x -->
      <g style="fill: #ffffff" transform="translate(443.195772 257.072298) rotate(-45) scale(0.1 -0.1)">
       <use xlink:href="#DejaVuSans-32"/>
       <use xlink:href="#DejaVuSans-78" transform="translate(63.623047 0)"/>
      </g>
     </g>
    </g>
    <g id="xtick_14">
     <g id="line2d_50">
      <path d="M 475.217527 236.015236 
L 475.217527 35.732595 
" clip-path="url(#p8526927922)" style="fill: none; stroke-dasharray: 0.5,0.825; stroke-dashoffset: 0; stroke: #b0b0b0; stroke-width: 0.5"/>
     </g>
     <g id="line2d_51">
      <g>
       <use xlink:href="#m721a108d4b" x="475.217527" y="236.015236" style="fill: #ffffff; stroke: #ffffff; stroke-width: 0.8"/>
      </g>
     </g>
     <g id="text_27">
      <!-- 4x -->
      <g style="fill: #ffffff" transform="translate(472.826622 257.072298) rotate(-45) scale(0.1 -0.1)">
       <use xlink:href="#DejaVuSans-34"/>
       <use xlink:href="#DejaVuSans-78" transform="translate(63.623047 0)"/>
      </g>
     </g>
    </g>
    <g id="xtick_15">
     <g id="line2d_52">
      <path d="M 504.848378 236.015236 
L 504.848378 35.732595 
" clip-path="url(#p8526927922)" style="fill: none; stroke-dasharray: 0.5,0.825; stroke-dashoffset: 0; stroke: #b0b0b0; stroke-width: 0.5"/>
     </g>
     <g id="line2d_53">
      <g>
       <use xlink:href="#m721a108d4b" x="504.848378" y="236.015236" style="fill: #ffffff; stroke: #ffffff; stroke-width: 0.8"/>
      </g>
     </g>
     <g id="text_28">
      <!-- 8x -->
      <g style="fill: #ffffff" transform="translate(502.457473 257.072298) rotate(-45) scale(0.1 -0.1)">
       <use xlink:href="#DejaVuSans-38"/>
       <use xlink:href="#DejaVuSans-78" transform="translate(63.623047 0)"/>
      </g>
     </g>
    </g>
    <g id="xtick_16">
     <g id="line2d_54">
      <path d="M 534.479229 236.015236 
L 534.479229 35.732595 
" clip-path="url(#p8526927922)" style="fill: none; stroke-dasharray: 0.5,0.825; stroke-dashoffset: 0; stroke: #b0b0b0; stroke-width: 0.5"/>
     </g>
     <g id="line2d_55">
      <g>
       <use xlink:href="#m721a108d4b" x="534.479229" y="236.015236" style="fill: #ffffff; stroke: #ffffff; stroke-width: 0.8"/>
      </g>
     </g>
     <g id="text_29">
      <!-- 16x -->
      <g style="fill: #ffffff" transform="translate(529.838841 261.571265) rotate(-45) scale(0.1 -0.1)">
       <use xlink:href="#DejaVuSans-31"/>
       <use xlink:href="#DejaVuSans-36" transform="translate(63.623047 0)"/>
       <use xlink:href="#DejaVuSans-78" transform="translate(127.246094 0)"/>
      </g>
     </g>
    </g>
    <g id="xtick_17">
     <g id="line2d_56">
      <path d="M 564.11008 236.015236 
L 564.11008 35.732595 
" clip-path="url(#p8526927922)" style="fill: none; stroke-dasharray: 0.5,0.825; stroke-dashoffset: 0; stroke: #b0b0b0; stroke-width: 0.5"/>
     </g>
     <g id="line2d_57">
      <g>
       <use xlink:href="#m721a108d4b" x="564.11008" y="236.015236" style="fill: #ffffff; stroke: #ffffff; stroke-width: 0.8"/>
      </g>
     </g>
     <g id="text_30">
      <!-- 32x -->
      <g style="fill: #ffffff" transform="translate(559.469692 261.571265) rotate(-45) scale(0.1 -0.1)">
       <use xlink:href="#DejaVuSans-33"/>
       <use xlink:href="#DejaVuSans-32" transform="translate(63.623047 0)"/>
       <use xlink:href="#DejaVuSans-78" transform="translate(127.246094 0)"/>
      </g>
     </g>
    </g>
    <g id="xtick_18">
     <g id="line2d_58">
      <path d="M 593.740931 236.015236 
L 593.740931 35.732595 
" clip-path="url(#p8526927922)" style="fill: none; stroke-dasharray: 0.5,0.825; stroke-dashoffset: 0; stroke: #b0b0b0; stroke-width: 0.5"/>
     </g>
     <g id="line2d_59">
      <g>
       <use xlink:href="#m721a108d4b" x="593.740931" y="236.015236" style="fill: #ffffff; stroke: #ffffff; stroke-width: 0.8"/>
      </g>
     </g>
     <g id="text_31">
      <!-- 64x -->
      <g style="fill: #ffffff" transform="translate(589.100543 261.571265) rotate(-45) scale(0.1 -0.1)">
       <use xlink:href="#DejaVuSans-36"/>
       <use xlink:href="#DejaVuSans-34" transform="translate(63.623047 0)"/>
       <use xlink:href="#DejaVuSans-78" transform="translate(127.246094 0)"/>
      </g>
     </g>
    </g>
    <g id="xtick_19">
     <g id="line2d_60">
      <path d="M 623.371782 236.015236 
L 623.371782 35.732595 
" clip-path="url(#p8526927922)" style="fill: none; stroke-dasharray: 0.5,0.825; stroke-dashoffset: 0; stroke: #b0b0b0; stroke-width: 0.5"/>
     </g>
     <g id="line2d_61">
      <g>
       <use xlink:href="#m721a108d4b" x="623.371782" y="236.015236" style="fill: #ffffff; stroke: #ffffff; stroke-width: 0.8"/>
      </g>
     </g>
     <g id="text_32">
      <!-- 128x -->
      <g style="fill: #ffffff" transform="translate(616.48191 266.070232) rotate(-45) scale(0.1 -0.1)">
       <use xlink:href="#DejaVuSans-31"/>
       <use xlink:href="#DejaVuSans-32" transform="translate(63.623047 0)"/>
       <use xlink:href="#DejaVuSans-38" transform="translate(127.246094 0)"/>
       <use xlink:href="#DejaVuSans-78" transform="translate(190.869141 0)"/>
      </g>
     </g>
    </g>
    <g id="xtick_20">
     <g id="line2d_62">
      <path d="M 653.002633 236.015236 
L 653.002633 35.732595 
" clip-path="url(#p8526927922)" style="fill: none; stroke-dasharray: 0.5,0.825; stroke-dashoffset: 0; stroke: #b0b0b0; stroke-width: 0.5"/>
     </g>
     <g id="line2d_63">
      <g>
       <use xlink:href="#m721a108d4b" x="653.002633" y="236.015236" style="fill: #ffffff; stroke: #ffffff; stroke-width: 0.8"/>
      </g>
     </g>
     <g id="text_33">
      <!-- 256x -->
      <g style="fill: #ffffff" transform="translate(646.112761 266.070232) rotate(-45) scale(0.1 -0.1)">
       <use xlink:href="#DejaVuSans-32"/>
       <use xlink:href="#DejaVuSans-35" transform="translate(63.623047 0)"/>
       <use xlink:href="#DejaVuSans-36" transform="translate(127.246094 0)"/>
       <use xlink:href="#DejaVuSans-78" transform="translate(190.869141 0)"/>
      </g>
     </g>
    </g>
    <g id="xtick_21">
     <g id="line2d_64">
      <path d="M 682.633484 236.015236 
L 682.633484 35.732595 
" clip-path="url(#p8526927922)" style="fill: none; stroke-dasharray: 0.5,0.825; stroke-dashoffset: 0; stroke: #b0b0b0; stroke-width: 0.5"/>
     </g>
     <g id="line2d_65">
      <g>
       <use xlink:href="#m721a108d4b" x="682.633484" y="236.015236" style="fill: #ffffff; stroke: #ffffff; stroke-width: 0.8"/>
      </g>
     </g>
     <g id="text_34">
      <!-- 512x -->
      <g style="fill: #ffffff" transform="translate(675.743612 266.070232) rotate(-45) scale(0.1 -0.1)">
       <use xlink:href="#DejaVuSans-35"/>
       <use xlink:href="#DejaVuSans-31" transform="translate(63.623047 0)"/>
       <use xlink:href="#DejaVuSans-32" transform="translate(127.246094 0)"/>
       <use xlink:href="#DejaVuSans-78" transform="translate(190.869141 0)"/>
      </g>
     </g>
    </g>
    <g id="xtick_22">
     <g id="line2d_66">
      <path d="M 712.264335 236.015236 
L 712.264335 35.732595 
" clip-path="url(#p8526927922)" style="fill: none; stroke-dasharray: 0.5,0.825; stroke-dashoffset: 0; stroke: #b0b0b0; stroke-width: 0.5"/>
     </g>
     <g id="line2d_67">
      <g>
       <use xlink:href="#m721a108d4b" x="712.264335" y="236.015236" style="fill: #ffffff; stroke: #ffffff; stroke-width: 0.8"/>
      </g>
     </g>
     <g id="text_35">
      <!-- 1024x -->
      <g style="fill: #ffffff" transform="translate(703.124979 270.569199) rotate(-45) scale(0.1 -0.1)">
       <use xlink:href="#DejaVuSans-31"/>
       <use xlink:href="#DejaVuSans-30" transform="translate(63.623047 0)"/>
       <use xlink:href="#DejaVuSans-32" transform="translate(127.246094 0)"/>
       <use xlink:href="#DejaVuSans-34" transform="translate(190.869141 0)"/>
       <use xlink:href="#DejaVuSans-78" transform="translate(254.492188 0)"/>
      </g>
     </g>
    </g>
   </g>
   <g id="matplotlib.axis_4">
    <g id="ytick_9">
     <g id="line2d_68">
      <path d="M 401.1404 236.015236 
L 727.07976 236.015236 
" clip-path="url(#p8526927922)" style="fill: none; stroke-dasharray: 0.5,0.825; stroke-dashoffset: 0; stroke: #b0b0b0; stroke-width: 0.5"/>
     </g>
     <g id="line2d_69">
      <g>
       <use xlink:href="#m3b93d7c90c" x="401.1404" y="236.015236" style="fill: #ffffff; stroke: #ffffff; stroke-width: 0.8"/>
      </g>
     </g>
     <g id="text_36">
      <!-- 16 -->
      <g style="fill: #ffffff" transform="translate(381.4154 239.814455) scale(0.1 -0.1)">
       <use xlink:href="#DejaVuSans-31"/>
       <use xlink:href="#DejaVuSans-36" transform="translate(63.623047 0)"/>
      </g>
     </g>
    </g>
    <g id="ytick_10">
     <g id="line2d_70">
      <path d="M 401.1404 207.40343 
L 727.07976 207.40343 
" clip-path="url(#p8526927922)" style="fill: none; stroke-dasharray: 0.5,0.825; stroke-dashoffset: 0; stroke: #b0b0b0; stroke-width: 0.5"/>
     </g>
     <g id="line2d_71">
      <g>
       <use xlink:href="#m3b93d7c90c" x="401.1404" y="207.40343" style="fill: #ffffff; stroke: #ffffff; stroke-width: 0.8"/>
      </g>
     </g>
     <g id="text_37">
      <!-- 32 -->
      <g style="fill: #ffffff" transform="translate(381.4154 211.202649) scale(0.1 -0.1)">
       <use xlink:href="#DejaVuSans-33"/>
       <use xlink:href="#DejaVuSans-32" transform="translate(63.623047 0)"/>
      </g>
     </g>
    </g>
    <g id="ytick_11">
     <g id="line2d_72">
      <path d="M 401.1404 178.791625 
L 727.07976 178.791625 
" clip-path="url(#p8526927922)" style="fill: none; stroke-dasharray: 0.5,0.825; stroke-dashoffset: 0; stroke: #b0b0b0; stroke-width: 0.5"/>
     </g>
     <g id="line2d_73">
      <g>
       <use xlink:href="#m3b93d7c90c" x="401.1404" y="178.791625" style="fill: #ffffff; stroke: #ffffff; stroke-width: 0.8"/>
      </g>
     </g>
     <g id="text_38">
      <!-- 64 -->
      <g style="fill: #ffffff" transform="translate(381.4154 182.590843) scale(0.1 -0.1)">
       <use xlink:href="#DejaVuSans-36"/>
       <use xlink:href="#DejaVuSans-34" transform="translate(63.623047 0)"/>
      </g>
     </g>
    </g>
    <g id="ytick_12">
     <g id="line2d_74">
      <path d="M 401.1404 150.179819 
L 727.07976 150.179819 
" clip-path="url(#p8526927922)" style="fill: none; stroke-dasharray: 0.5,0.825; stroke-dashoffset: 0; stroke: #b0b0b0; stroke-width: 0.5"/>
     </g>
     <g id="line2d_75">
      <g>
       <use xlink:href="#m3b93d7c90c" x="401.1404" y="150.179819" style="fill: #ffffff; stroke: #ffffff; stroke-width: 0.8"/>
      </g>
     </g>
     <g id="text_39">
      <!-- 128 -->
      <g style="fill: #ffffff" transform="translate(375.0529 153.979037) scale(0.1 -0.1)">
       <use xlink:href="#DejaVuSans-31"/>
       <use xlink:href="#DejaVuSans-32" transform="translate(63.623047 0)"/>
       <use xlink:href="#DejaVuSans-38" transform="translate(127.246094 0)"/>
      </g>
     </g>
    </g>
    <g id="ytick_13">
     <g id="line2d_76">
      <path d="M 401.1404 121.568013 
L 727.07976 121.568013 
" clip-path="url(#p8526927922)" style="fill: none; stroke-dasharray: 0.5,0.825; stroke-dashoffset: 0; stroke: #b0b0b0; stroke-width: 0.5"/>
     </g>
     <g id="line2d_77">
      <g>
       <use xlink:href="#m3b93d7c90c" x="401.1404" y="121.568013" style="fill: #ffffff; stroke: #ffffff; stroke-width: 0.8"/>
      </g>
     </g>
     <g id="text_40">
      <!-- 256 -->
      <g style="fill: #ffffff" transform="translate(375.0529 125.367231) scale(0.1 -0.1)">
       <use xlink:href="#DejaVuSans-32"/>
       <use xlink:href="#DejaVuSans-35" transform="translate(63.623047 0)"/>
       <use xlink:href="#DejaVuSans-36" transform="translate(127.246094 0)"/>
      </g>
     </g>
    </g>
    <g id="ytick_14">
     <g id="line2d_78">
      <path d="M 401.1404 92.956207 
L 727.07976 92.956207 
" clip-path="url(#p8526927922)" style="fill: none; stroke-dasharray: 0.5,0.825; stroke-dashoffset: 0; stroke: #b0b0b0; stroke-width: 0.5"/>
     </g>
     <g id="line2d_79">
      <g>
       <use xlink:href="#m3b93d7c90c" x="401.1404" y="92.956207" style="fill: #ffffff; stroke: #ffffff; stroke-width: 0.8"/>
      </g>
     </g>
     <g id="text_41">
      <!-- 512 -->
      <g style="fill: #ffffff" transform="translate(375.0529 96.755426) scale(0.1 -0.1)">
       <use xlink:href="#DejaVuSans-35"/>
       <use xlink:href="#DejaVuSans-31" transform="translate(63.623047 0)"/>
       <use xlink:href="#DejaVuSans-32" transform="translate(127.246094 0)"/>
      </g>
     </g>
    </g>
    <g id="ytick_15">
     <g id="line2d_80">
      <path d="M 401.1404 64.344401 
L 727.07976 64.344401 
" clip-path="url(#p8526927922)" style="fill: none; stroke-dasharray: 0.5,0.825; stroke-dashoffset: 0; stroke: #b0b0b0; stroke-width: 0.5"/>
     </g>
     <g id="line2d_81">
      <g>
       <use xlink:href="#m3b93d7c90c" x="401.1404" y="64.344401" style="fill: #ffffff; stroke: #ffffff; stroke-width: 0.8"/>
      </g>
     </g>
     <g id="text_42">
      <!-- 1024 -->
      <g style="fill: #ffffff" transform="translate(368.6904 68.14362) scale(0.1 -0.1)">
       <use xlink:href="#DejaVuSans-31"/>
       <use xlink:href="#DejaVuSans-30" transform="translate(63.623047 0)"/>
       <use xlink:href="#DejaVuSans-32" transform="translate(127.246094 0)"/>
       <use xlink:href="#DejaVuSans-34" transform="translate(190.869141 0)"/>
      </g>
     </g>
    </g>
    <g id="ytick_16">
     <g id="line2d_82">
      <path d="M 401.1404 35.732595 
L 727.07976 35.732595 
" clip-path="url(#p8526927922)" style="fill: none; stroke-dasharray: 0.5,0.825; stroke-dashoffset: 0; stroke: #b0b0b0; stroke-width: 0.5"/>
     </g>
     <g id="line2d_83">
      <g>
       <use xlink:href="#m3b93d7c90c" x="401.1404" y="35.732595" style="fill: #ffffff; stroke: #ffffff; stroke-width: 0.8"/>
      </g>
     </g>
     <g id="text_43">
      <!-- 2048 -->
      <g style="fill: #ffffff" transform="translate(368.6904 39.531814) scale(0.1 -0.1)">
       <use xlink:href="#DejaVuSans-32"/>
       <use xlink:href="#DejaVuSans-30" transform="translate(63.623047 0)"/>
       <use xlink:href="#DejaVuSans-34" transform="translate(127.246094 0)"/>
       <use xlink:href="#DejaVuSans-38" transform="translate(190.869141 0)"/>
      </g>
     </g>
    </g>
   </g>
   <g id="line2d_84">
    <path d="M 611.073868 236.015236 
L 611.073868 35.732595 
" clip-path="url(#p8526927922)" style="fill: none; stroke-dasharray: 5.55,2.4; stroke-dashoffset: 0; stroke: #1f77b4; stroke-width: 1.5"/>
   </g>
   <g id="line2d_85">
    <path d="M 415.955825 185.086719 
L 445.586676 181.204275 
L 475.217527 172.927081 
L 504.848378 156.85258 
L 534.479229 149.375931 
L 564.11008 138.825054 
L 593.740931 137.735048 
L 611.073868 136.514318 
L 623.371782 124.737683 
L 653.002633 96.209561 
L 682.633484 71.293719 
L 712.264335 42.251552 
" clip-path="url(#p8526927922)" style="fill: none; stroke: #1f77b4; stroke-width: 1.5; stroke-linecap: square"/>
   </g>
   <g id="line2d_86">
    <g clip-path="url(#p8526927922)">
     <use xlink:href="#m354ec30b46" x="415.955825" y="185.086719" style="fill: #1f77b4; stroke: #1f77b4"/>
     <use xlink:href="#m354ec30b46" x="445.586676" y="181.204275" style="fill: #1f77b4; stroke: #1f77b4"/>
     <use xlink:href="#m354ec30b46" x="475.217527" y="172.927081" style="fill: #1f77b4; stroke: #1f77b4"/>
     <use xlink:href="#m354ec30b46" x="504.848378" y="156.85258" style="fill: #1f77b4; stroke: #1f77b4"/>
     <use xlink:href="#m354ec30b46" x="534.479229" y="149.375931" style="fill: #1f77b4; stroke: #1f77b4"/>
     <use xlink:href="#m354ec30b46" x="564.11008" y="138.825054" style="fill: #1f77b4; stroke: #1f77b4"/>
     <use xlink:href="#m354ec30b46" x="593.740931" y="137.735048" style="fill: #1f77b4; stroke: #1f77b4"/>
     <use xlink:href="#m354ec30b46" x="611.073868" y="136.514318" style="fill: #1f77b4; stroke: #1f77b4"/>
     <use xlink:href="#m354ec30b46" x="623.371782" y="124.737683" style="fill: #1f77b4; stroke: #1f77b4"/>
     <use xlink:href="#m354ec30b46" x="653.002633" y="96.209561" style="fill: #1f77b4; stroke: #1f77b4"/>
     <use xlink:href="#m354ec30b46" x="682.633484" y="71.293719" style="fill: #1f77b4; stroke: #1f77b4"/>
     <use xlink:href="#m354ec30b46" x="712.264335" y="42.251552" style="fill: #1f77b4; stroke: #1f77b4"/>
    </g>
   </g>
   <g id="line2d_87">
    <path d="M 415.955825 216.549499 
L 445.586676 216.026795 
L 475.217527 211.827915 
L 504.848378 203.704253 
L 534.479229 194.056997 
L 564.11008 178.07813 
L 593.740931 160.8328 
L 623.371782 133.724356 
L 653.002633 108.7699 
L 682.633484 89.193339 
L 712.264335 60.52117 
" clip-path="url(#p8526927922)" style="fill: none; stroke: #ff7f0e; stroke-width: 1.5; stroke-linecap: square"/>
   </g>
   <g id="line2d_88">
    <g clip-path="url(#p8526927922)">
     <use xlink:href="#m2e0d161c79" x="415.955825" y="216.549499" style="fill: #ff7f0e; stroke: #ff7f0e"/>
     <use xlink:href="#m2e0d161c79" x="445.586676" y="216.026795" style="fill: #ff7f0e; stroke: #ff7f0e"/>
     <use xlink:href="#m2e0d161c79" x="475.217527" y="211.827915" style="fill: #ff7f0e; stroke: #ff7f0e"/>
     <use xlink:href="#m2e0d161c79" x="504.848378" y="203.704253" style="fill: #ff7f0e; stroke: #ff7f0e"/>
     <use xlink:href="#m2e0d161c79" x="534.479229" y="194.056997" style="fill: #ff7f0e; stroke: #ff7f0e"/>
     <use xlink:href="#m2e0d161c79" x="564.11008" y="178.07813" style="fill: #ff7f0e; stroke: #ff7f0e"/>
     <use xlink:href="#m2e0d161c79" x="593.740931" y="160.8328" style="fill: #ff7f0e; stroke: #ff7f0e"/>
     <use xlink:href="#m2e0d161c79" x="623.371782" y="133.724356" style="fill: #ff7f0e; stroke: #ff7f0e"/>
     <use xlink:href="#m2e0d161c79" x="653.002633" y="108.7699" style="fill: #ff7f0e; stroke: #ff7f0e"/>
     <use xlink:href="#m2e0d161c79" x="682.633484" y="89.193339" style="fill: #ff7f0e; stroke: #ff7f0e"/>
     <use xlink:href="#m2e0d161c79" x="712.264335" y="60.52117" style="fill: #ff7f0e; stroke: #ff7f0e"/>
    </g>
   </g>
   <g id="patch_13">
    <path d="M 401.1404 236.015236 
L 401.1404 35.732595 
" style="fill: none; stroke: #000000; stroke-width: 0.8; stroke-linejoin: miter; stroke-linecap: square"/>
   </g>
   <g id="patch_14">
    <path d="M 727.07976 236.015236 
L 727.07976 35.732595 
" style="fill: none; stroke: #000000; stroke-width: 0.8; stroke-linejoin: miter; stroke-linecap: square"/>
   </g>
   <g id="patch_15">
    <path d="M 401.1404 236.015236 
L 727.07976 236.015236 
" style="fill: none; stroke: #000000; stroke-width: 0.8; stroke-linejoin: miter; stroke-linecap: square"/>
   </g>
   <g id="patch_16">
    <path d="M 401.1404 35.732595 
L 727.07976 35.732595 
" style="fill: none; stroke: #000000; stroke-width: 0.8; stroke-linejoin: miter; stroke-linecap: square"/>
   </g>
   <g id="patch_17">
    <path d="M 608.181519 105.831519 
Q 512.62768 105.831519 417.073841 105.831519 
" style="fill: none; stroke: #1f77b4; stroke-width: 0.8; stroke-linecap: round"/>
    <path d="M 604.181519 103.831519 
L 608.181519 105.831519 
L 604.181519 107.831519 
" style="fill: none; stroke: #1f77b4; stroke-width: 0.8; stroke-linecap: round"/>
    <path d="M 421.073841 107.831519 
L 417.073841 105.831519 
L 421.073841 103.831519 
" style="fill: none; stroke: #1f77b4; stroke-width: 0.8; stroke-linecap: round"/>
   </g>
   <g id="text_44">
    <g id="patch_18">
     <path d="M 471.969013 113.860859 
L 553.282829 113.860859 
L 553.282829 97.80218 
L 471.969013 97.80218 
z
" style="fill: #ffffff; stroke: #ffffff; stroke-linejoin: miter"/>
    </g>
    <!-- weak CPU scaling -->
    <g style="fill: #1f77b4" transform="translate(475.967413 108.130079) scale(0.0833 -0.0833)">
     <use xlink:href="#DejaVuSans-77"/>
     <use xlink:href="#DejaVuSans-65" transform="translate(81.787109 0)"/>
     <use xlink:href="#DejaVuSans-61" transform="translate(143.310547 0)"/>
     <use xlink:href="#DejaVuSans-6b" transform="translate(204.589844 0)"/>
     <use xlink:href="#DejaVuSans-20" transform="translate(262.5 0)"/>
     <use xlink:href="#DejaVuSans-43" transform="translate(294.287109 0)"/>
     <use xlink:href="#DejaVuSans-50" transform="translate(364.111328 0)"/>
     <use xlink:href="#DejaVuSans-55" transform="translate(424.414062 0)"/>
     <use xlink:href="#DejaVuSans-20" transform="translate(497.607422 0)"/>
     <use xlink:href="#DejaVuSans-73" transform="translate(529.394531 0)"/>
     <use xlink:href="#DejaVuSans-63" transform="translate(581.494141 0)"/>
     <use xlink:href="#DejaVuSans-61" transform="translate(636.474609 0)"/>
     <use xlink:href="#DejaVuSans-6c" transform="translate(697.753906 0)"/>
     <use xlink:href="#DejaVuSans-69" transform="translate(725.537109 0)"/>
     <use xlink:href="#DejaVuSans-6e" transform="translate(753.320312 0)"/>
     <use xlink:href="#DejaVuSans-67" transform="translate(816.699219 0)"/>
    </g>
   </g>
   <g id="patch_19">
    <path d="M 613.969968 211.981319 
Q 662.558995 211.981319 711.148022 211.981319 
" style="fill: none; stroke: #1f77b4; stroke-width: 0.8; stroke-linecap: round"/>
    <path d="M 617.969968 213.981319 
L 613.969968 211.981319 
L 617.969968 209.981319 
" style="fill: none; stroke: #1f77b4; stroke-width: 0.8; stroke-linecap: round"/>
    <path d="M 707.148022 209.981319 
L 711.148022 211.981319 
L 707.148022 213.981319 
" style="fill: none; stroke: #1f77b4; stroke-width: 0.8; stroke-linecap: round"/>
   </g>
   <g id="text_45">
    <g id="patch_20">
     <path d="M 636.433064 220.010658 
L 688.682989 220.010658 
L 688.682989 203.95198 
L 636.433064 203.95198 
z
" style="fill: #ffffff; stroke: #ffffff; stroke-linejoin: miter"/>
    </g>
    <!-- fixed CPUs -->
    <g style="fill: #1f77b4" transform="translate(640.431464 214.279879) scale(0.0833 -0.0833)">
     <use xlink:href="#DejaVuSans-66"/>
     <use xlink:href="#DejaVuSans-69" transform="translate(35.205078 0)"/>
     <use xlink:href="#DejaVuSans-78" transform="translate(62.988281 0)"/>
     <use xlink:href="#DejaVuSans-65" transform="translate(119.042969 0)"/>
     <use xlink:href="#DejaVuSans-64" transform="translate(180.566406 0)"/>
     <use xlink:href="#DejaVuSans-20" transform="translate(244.042969 0)"/>
     <use xlink:href="#DejaVuSans-43" transform="translate(275.830078 0)"/>
     <use xlink:href="#DejaVuSans-50" transform="translate(345.654297 0)"/>
     <use xlink:href="#DejaVuSans-55" transform="translate(405.957031 0)"/>
     <use xlink:href="#DejaVuSans-73" transform="translate(479.150391 0)"/>
    </g>
   </g>
   <g id="text_46">
    <!-- Main loop -->
    <g style="fill: #ffffff" transform="translate(535.061642 29.732595) scale(0.12 -0.12)">
     <defs>
      <path id="DejaVuSans-4d" d="M 628 4666 
L 1569 4666 
L 2759 1491 
L 3956 4666 
L 4897 4666 
L 4897 0 
L 4281 0 
L 4281 4097 
L 3078 897 
L 2444 897 
L 1241 4097 
L 1241 0 
L 628 0 
L 628 4666 
z
" transform="scale(0.015625)"/>
      <path id="DejaVuSans-6f" d="M 1959 3097 
Q 1497 3097 1228 2736 
Q 959 2375 959 1747 
Q 959 1119 1226 758 
Q 1494 397 1959 397 
Q 2419 397 2687 759 
Q 2956 1122 2956 1747 
Q 2956 2369 2687 2733 
Q 2419 3097 1959 3097 
z
M 1959 3584 
Q 2709 3584 3137 3096 
Q 3566 2609 3566 1747 
Q 3566 888 3137 398 
Q 2709 -91 1959 -91 
Q 1206 -91 779 398 
Q 353 888 353 1747 
Q 353 2609 779 3096 
Q 1206 3584 1959 3584 
z
" transform="scale(0.015625)"/>
     </defs>
     <use xlink:href="#DejaVuSans-4d"/>
     <use xlink:href="#DejaVuSans-61" transform="translate(86.279297 0)"/>
     <use xlink:href="#DejaVuSans-69" transform="translate(147.558594 0)"/>
     <use xlink:href="#DejaVuSans-6e" transform="translate(175.341797 0)"/>
     <use xlink:href="#DejaVuSans-20" transform="translate(238.720703 0)"/>
     <use xlink:href="#DejaVuSans-6c" transform="translate(270.507812 0)"/>
     <use xlink:href="#DejaVuSans-6f" transform="translate(298.291016 0)"/>
     <use xlink:href="#DejaVuSans-6f" transform="translate(359.472656 0)"/>
     <use xlink:href="#DejaVuSans-70" transform="translate(420.654297 0)"/>
    </g>
   </g>
  </g>
  <g id="text_47">
   <!-- Time per step (msec) from 32×32 to 1024×1024 -->
   <g style="fill: #ffffff" transform="translate(217.574063 12.118365) scale(0.12 -0.12)">
    <defs>
     <path id="DejaVuSans-54" d="M -19 4666 
L 3928 4666 
L 3928 4134 
L 2272 4134 
L 2272 0 
L 1638 0 
L 1638 4134 
L -19 4134 
L -19 4666 
z
" transform="scale(0.015625)"/>
     <path id="DejaVuSans-72" d="M 2631 2963 
Q 2534 3019 2420 3045 
Q 2306 3072 2169 3072 
Q 1681 3072 1420 2755 
Q 1159 2438 1159 1844 
L 1159 0 
L 581 0 
L 581 3500 
L 1159 3500 
L 1159 2956 
Q 1341 3275 1631 3429 
Q 1922 3584 2338 3584 
Q 2397 3584 2469 3576 
Q 2541 3569 2628 3553 
L 2631 2963 
z
" transform="scale(0.015625)"/>
     <path id="DejaVuSans-74" d="M 1172 4494 
L 1172 3500 
L 2356 3500 
L 2356 3053 
L 1172 3053 
L 1172 1153 
Q 1172 725 1289 603 
Q 1406 481 1766 481 
L 2356 481 
L 2356 0 
L 1766 0 
Q 1100 0 847 248 
Q 594 497 594 1153 
L 594 3053 
L 172 3053 
L 172 3500 
L 594 3500 
L 594 4494 
L 1172 4494 
z
" transform="scale(0.015625)"/>
     <path id="DejaVuSans-d7" d="M 4488 3438 
L 3059 2003 
L 4488 575 
L 4116 197 
L 2681 1631 
L 1247 197 
L 878 575 
L 2303 2003 
L 878 3438 
L 1247 3816 
L 2681 2381 
L 4116 3816 
L 4488 3438 
z
" transform="scale(0.015625)"/>
    </defs>
    <use xlink:href="#DejaVuSans-54"/>
    <use xlink:href="#DejaVuSans-69" transform="translate(57.958984 0)"/>
    <use xlink:href="#DejaVuSans-6d" transform="translate(85.742188 0)"/>
    <use xlink:href="#DejaVuSans-65" transform="translate(183.154297 0)"/>
    <use xlink:href="#DejaVuSans-20" transform="translate(244.677734 0)"/>
    <use xlink:href="#DejaVuSans-70" transform="translate(276.464844 0)"/>
    <use xlink:href="#DejaVuSans-65" transform="translate(339.941406 0)"/>
    <use xlink:href="#DejaVuSans-72" transform="translate(401.464844 0)"/>
    <use xlink:href="#DejaVuSans-20" transform="translate(442.578125 0)"/>
    <use xlink:href="#DejaVuSans-73" transform="translate(474.365234 0)"/>
    <use xlink:href="#DejaVuSans-74" transform="translate(526.464844 0)"/>
    <use xlink:href="#DejaVuSans-65" transform="translate(565.673828 0)"/>
    <use xlink:href="#DejaVuSans-70" transform="translate(627.197266 0)"/>
    <use xlink:href="#DejaVuSans-20" transform="translate(690.673828 0)"/>
    <use xlink:href="#DejaVuSans-28" transform="translate(722.460938 0)"/>
    <use xlink:href="#DejaVuSans-6d" transform="translate(761.474609 0)"/>
    <use xlink:href="#DejaVuSans-73" transform="translate(858.886719 0)"/>
    <use xlink:href="#DejaVuSans-65" transform="translate(910.986328 0)"/>
    <use xlink:href="#DejaVuSans-63" transform="translate(972.509766 0)"/>
    <use xlink:href="#DejaVuSans-29" transform="translate(1027.490234 0)"/>
    <use xlink:href="#DejaVuSans-20" transform="translate(1066.503906 0)"/>
    <use xlink:href="#DejaVuSans-66" transform="translate(1098.291016 0)"/>
    <use xlink:href="#DejaVuSans-72" transform="translate(1133.496094 0)"/>
    <use xlink:href="#DejaVuSans-6f" transform="translate(1172.359375 0)"/>
    <use xlink:href="#DejaVuSans-6d" transform="translate(1233.541016 0)"/>
    <use xlink:href="#DejaVuSans-20" transform="translate(1330.953125 0)"/>
    <use xlink:href="#DejaVuSans-33" transform="translate(1362.740234 0)"/>
    <use xlink:href="#DejaVuSans-32" transform="translate(1426.363281 0)"/>
    <use xlink:href="#DejaVuSans-d7" transform="translate(1489.986328 0)"/>
    <use xlink:href="#DejaVuSans-33" transform="translate(1573.775391 0)"/>
    <use xlink:href="#DejaVuSans-32" transform="translate(1637.398438 0)"/>
    <use xlink:href="#DejaVuSans-20" transform="translate(1701.021484 0)"/>
    <use xlink:href="#DejaVuSans-74" transform="translate(1732.808594 0)"/>
    <use xlink:href="#DejaVuSans-6f" transform="translate(1772.017578 0)"/>
    <use xlink:href="#DejaVuSans-20" transform="translate(1833.199219 0)"/>
    <use xlink:href="#DejaVuSans-31" transform="translate(1864.986328 0)"/>
    <use xlink:href="#DejaVuSans-30" transform="translate(1928.609375 0)"/>
    <use xlink:href="#DejaVuSans-32" transform="translate(1992.232422 0)"/>
    <use xlink:href="#DejaVuSans-34" transform="translate(2055.855469 0)"/>
    <use xlink:href="#DejaVuSans-d7" transform="translate(2119.478516 0)"/>
    <use xlink:href="#DejaVuSans-31" transform="translate(2203.267578 0)"/>
    <use xlink:href="#DejaVuSans-30" transform="translate(2266.890625 0)"/>
    <use xlink:href="#DejaVuSans-32" transform="translate(2330.513672 0)"/>
    <use xlink:href="#DejaVuSans-34" transform="translate(2394.136719 0)"/>
   </g>
  </g>
 </g>
 <defs>
  <clipPath id="p878d4748f3">
   <rect x="35.45024" y="35.732595" width="325.93936" height="200.282641"/>
  </clipPath>
  <clipPath id="p8526927922">
   <rect x="401.1404" y="35.732595" width="325.93936" height="200.282641"/>
  </clipPath>
 </defs>
</svg>
